<svg width="20" height="21" viewBox="0 0 20 21" fill="none" xmlns="http://www.w3.org/2000/svg">
<path fill-rule="evenodd" clip-rule="evenodd" d="M6.82929 18.9717C6.41746 20.1534 5.30622 21 4 21C2.34315 21 1 19.6379 1 17.9576C1 16.2773 2.34315 14.9151 4 14.9151C5.30622 14.9151 6.41746 15.7617 6.82929 16.9434H15.5C16.8807 16.9434 18 15.8083 18 14.4081C18 13.0078 16.8807 11.8727 15.5 11.8727H4.5C2.01472 11.8727 0 9.82948 0 7.30905C0 4.78861 2.01472 2.7454 4.5 2.7454H7.58579L6.29289 1.43422L7.70711 0L11.4142 3.75954L7.70711 7.51908L6.29289 6.08487L7.58579 4.77369H4.5C3.11929 4.77369 2 5.90881 2 7.30905C2 8.70929 3.11929 9.84441 4.5 9.84441H15.5C17.9853 9.84441 20 11.8876 20 14.4081C20 16.9285 17.9853 18.9717 15.5 18.9717H6.82929ZM4 16.9434C3.44772 16.9434 3 17.3975 3 17.9576C3 18.5177 3.44772 18.9717 4 18.9717C4.55228 18.9717 5 18.5177 5 17.9576C5 17.3975 4.55228 16.9434 4 16.9434ZM16 0.717109C17.6569 0.717109 19 2.07925 19 3.75954C19 5.43983 17.6569 6.80198 16 6.80198C14.3431 6.80198 13 5.43983 13 3.75954C13 2.07925 14.3431 0.717109 16 0.717109ZM16 2.7454C15.4477 2.7454 15 3.19945 15 3.75954C15 4.31964 15.4477 4.77369 16 4.77369C16.5523 4.77369 17 4.31964 17 3.75954C17 3.19945 16.5523 2.7454 16 2.7454Z" fill="white"/>
</svg>
