<svg width="17" height="22" viewBox="0 0 17 22" fill="none" xmlns="http://www.w3.org/2000/svg">
<path d="M14.2156 18.2539H13.3704V15.8419C13.3704 15.4626 13.0735 15.1539 12.7086 15.1539H10.5759V12.6968C10.5759 11.3994 9.55488 10.3379 8.30692 10.3379C7.05896 10.3379 6.0379 11.3994 6.0379 12.6968V15.1166C6.01332 15.1127 5.98874 15.1087 5.96227 15.1087H4.42709V12.6968C4.42709 12.3174 4.13023 12.0088 3.7653 12.0088H2.25262C1.88768 12.0088 1.59082 12.3174 1.59082 12.6968C1.59082 13.0762 1.88768 13.3848 2.25262 13.3848H3.1035V15.7967C3.1035 16.1761 3.40036 16.4847 3.7653 16.4847H5.96227C5.98874 16.4847 6.01332 16.4788 6.0379 16.4769V18.7905C6.0379 20.0879 7.05896 21.1494 8.30692 21.1494C9.55488 21.1494 10.5759 20.0879 10.5759 18.7905V16.53H12.0449V18.9419C12.0449 19.3213 12.3418 19.6299 12.7067 19.6299H14.2137C14.5787 19.6299 14.8755 19.3213 14.8755 18.9419C14.8755 18.5625 14.5806 18.2539 14.2156 18.2539Z" fill="#969696"/>
<path fill-rule="evenodd" clip-rule="evenodd" d="M13.5195 18.1055H14.2158C14.669 18.1055 15.0247 18.4868 15.0247 18.9424C15.0247 19.3985 14.6665 19.7793 14.214 19.7793H12.7069C12.2544 19.7793 11.8962 19.3985 11.8962 18.9424V16.6793H10.7251V18.791C10.7251 20.1651 9.64274 21.2988 8.30714 21.2988C6.97154 21.2988 5.88922 20.1651 5.88922 18.791V16.6341H3.76552C3.31295 16.6341 2.95482 16.2533 2.95482 15.7972V13.5341H2.25284C1.80027 13.5341 1.44214 13.1534 1.44214 12.6972C1.44214 12.2411 1.80027 11.8603 2.25284 11.8603H3.76552C4.21809 11.8603 4.57622 12.2411 4.57622 12.6972V14.9603H5.88922V12.6972C5.88922 11.3231 6.97154 10.1895 8.30714 10.1895C9.64274 10.1895 10.7251 11.3231 10.7251 12.6972V15.0055H12.7088C13.1614 15.0055 13.5195 15.3863 13.5195 15.8424V18.1055ZM6.03812 15.1171C6.01354 15.1131 5.98896 15.1092 5.96249 15.1092H4.42732V12.6972C4.42732 12.3179 4.13045 12.0092 3.76552 12.0092H2.25284C1.88791 12.0092 1.59104 12.3179 1.59104 12.6972C1.59104 13.0766 1.88791 13.3852 2.25284 13.3852H3.10372V15.7972C3.10372 16.1766 3.40058 16.4852 3.76552 16.4852H5.96249C5.97865 16.4852 5.99411 16.483 6.0093 16.4808C6.01898 16.4795 6.02855 16.4781 6.03812 16.4773V18.791C6.03812 20.0884 7.05918 21.1499 8.30714 21.1499C9.5551 21.1499 10.5762 20.0884 10.5762 18.791V16.5304H12.0451V18.9424C12.0451 19.3218 12.342 19.6304 12.7069 19.6304H14.214C14.5789 19.6304 14.8757 19.3218 14.8757 18.9424C14.8757 18.563 14.5808 18.2544 14.2158 18.2544H13.3706V15.8424C13.3706 15.463 13.0738 15.1544 12.7088 15.1544H10.5762V12.6972C10.5762 11.3999 9.5551 10.3384 8.30714 10.3384C7.05918 10.3384 6.03812 11.3999 6.03812 12.6972V15.1171Z" fill="#969696"/>
<path d="M15.5871 0.605469H13.4977C12.9361 0.605469 12.4048 0.888534 12.0776 1.36424C12.0398 1.41928 12.0115 1.47825 11.9907 1.54116L10.9904 4.58608C10.9015 4.67847 10.7824 4.73154 10.6557 4.73154H5.96074C5.83406 4.73154 5.71304 4.67847 5.62606 4.58608L4.6258 1.54312C4.605 1.48022 4.57475 1.41928 4.53882 1.36621C4.20982 0.888534 3.68038 0.605469 3.11691 0.605469H1.02752C0.662586 0.605469 0.365723 0.914089 0.365723 1.29348C0.365723 1.67286 0.662586 1.98148 1.02752 1.98148H3.11691C3.22658 1.98148 3.33246 2.02669 3.40999 2.10532L4.41025 5.15024C4.43105 5.21315 4.4613 5.27409 4.49723 5.32716C4.8338 5.81663 5.38025 6.10952 5.95885 6.10952H7.6436V7.22213C6.58283 7.42656 5.64119 8.11064 5.09662 9.1112C4.91699 9.44144 5.02855 9.86211 5.34622 10.0489C5.66388 10.2356 6.06852 10.1196 6.24815 9.78938C6.66981 9.01488 7.45829 8.53327 8.30539 8.53327C9.15249 8.53327 9.94098 9.01488 10.3626 9.78938C10.4837 10.0135 10.7087 10.1393 10.9393 10.1393C11.049 10.1393 11.1625 10.1098 11.2646 10.0489C11.5822 9.86211 11.6938 9.44144 11.5142 9.1112C10.9696 8.11064 10.028 7.42656 8.96719 7.22213V6.10952H10.6519C11.2305 6.10952 11.777 5.81663 12.1136 5.32716C12.1514 5.27212 12.1797 5.21315 12.2005 5.15024L13.2008 2.10532C13.2821 2.02669 13.3861 1.98148 13.4977 1.98148H15.5871C15.952 1.98148 16.2488 1.67286 16.2488 1.29348C16.2488 0.914089 15.952 0.605469 15.5871 0.605469Z" fill="#969696"/>
<path fill-rule="evenodd" clip-rule="evenodd" d="M11.9549 1.28034C12.309 0.765384 12.8857 0.457031 13.4976 0.457031H15.587C16.0396 0.457031 16.3977 0.837822 16.3977 1.29394C16.3977 1.75006 16.0396 2.13085 15.587 2.13085H13.4976C13.4381 2.13085 13.38 2.15121 13.3296 2.19075L12.342 5.19718C12.3172 5.27229 12.2827 5.34437 12.2363 5.41195C11.8729 5.94044 11.2812 6.25889 10.6519 6.25889H9.11608V7.10174C10.1717 7.34193 11.1002 8.03962 11.6449 9.04048C11.8614 9.43851 11.7295 9.94838 11.3404 10.1774C11.215 10.2522 11.0753 10.2886 10.9393 10.2886C10.6545 10.2886 10.3789 10.1333 10.2316 9.86069C9.83467 9.13182 9.09505 8.68264 8.30537 8.68264C7.51559 8.68264 6.77588 9.13194 6.37894 9.86099C6.16035 10.2629 5.66323 10.4084 5.27073 10.1777C4.8813 9.94875 4.74922 9.43869 4.9658 9.04051C5.51053 8.03965 6.43902 7.34193 7.49467 7.10174V6.25889H5.95883C5.32955 6.25889 4.73791 5.94049 4.37451 5.412L4.37389 5.4111C4.33037 5.3468 4.294 5.27352 4.26885 5.19746L3.28068 2.18933C3.23369 2.15161 3.1756 2.13085 3.11689 2.13085H1.0275C0.574929 2.13085 0.216797 1.75006 0.216797 1.29394C0.216797 0.837822 0.574929 0.457031 1.0275 0.457031H3.11689C3.73099 0.457031 4.30558 0.765562 4.66143 1.28221L4.66212 1.2832C4.70564 1.34751 4.74201 1.42079 4.76716 1.49684L5.75611 4.50539C5.81293 4.5553 5.88567 4.58311 5.96072 4.58311H10.6557C10.7299 4.58311 10.8018 4.55579 10.8605 4.50477L11.8492 1.49515C11.874 1.42005 11.9085 1.34791 11.9549 1.28034ZM10.9904 4.58655C10.9015 4.67894 10.7824 4.73201 10.6557 4.73201H5.96072C5.83404 4.73201 5.71302 4.67894 5.62604 4.58655L4.62578 1.54359C4.60498 1.48069 4.57473 1.41975 4.5388 1.36667C4.2098 0.889001 3.68036 0.605936 3.11689 0.605936H1.0275C0.662564 0.605936 0.365701 0.914556 0.365701 1.29394C0.365701 1.67333 0.662564 1.98195 1.0275 1.98195H3.11689C3.22656 1.98195 3.33244 2.02716 3.40997 2.10579L4.41023 5.15071C4.43103 5.21361 4.46128 5.27455 4.49721 5.32763C4.83378 5.81709 5.38023 6.10999 5.95883 6.10999H7.64358V7.22259C6.58281 7.42703 5.64117 8.11111 5.0966 9.11166C4.91697 9.44191 5.02853 9.86257 5.3462 10.0493C5.66386 10.2361 6.0685 10.1201 6.24813 9.78984C6.66979 9.01534 7.45827 8.53374 8.30537 8.53374C9.15247 8.53374 9.94096 9.01534 10.3626 9.78984C10.4836 10.0139 10.7086 10.1397 10.9393 10.1397C11.049 10.1397 11.1624 10.1103 11.2646 10.0493C11.5822 9.86257 11.6938 9.44191 11.5141 9.11166C10.9696 8.11111 10.0279 7.42703 8.96717 7.22259V6.10999H10.6519C11.2305 6.10999 11.777 5.81709 12.1135 5.32763C12.1514 5.27259 12.1797 5.21361 12.2005 5.15071L13.2008 2.10579C13.2821 2.02716 13.3861 1.98195 13.4976 1.98195H15.587C15.952 1.98195 16.2488 1.67333 16.2488 1.29394C16.2488 0.914556 15.952 0.605936 15.587 0.605936H13.4976C12.9361 0.605936 12.4047 0.889001 12.0776 1.36471C12.0398 1.41975 12.0114 1.47872 11.9906 1.54162L10.9904 4.58655Z" fill="#969696"/>
</svg>
