<svg width="22" height="22" viewBox="0 0 22 22" fill="none" xmlns="http://www.w3.org/2000/svg">
<path fill-rule="evenodd" clip-rule="evenodd" d="M6.79426 18.1898H15.138V19.7544C15.138 20.1694 15.3029 20.5674 15.5963 20.8608C15.8898 21.1542 16.2877 21.3191 16.7027 21.3191H17.7458C18.1608 21.3191 18.5588 21.1542 18.8522 20.8608C19.1456 20.5674 19.3105 20.1694 19.3105 19.7544V18.0125C19.9208 17.7965 20.4491 17.3967 20.8227 16.868C21.1963 16.3393 21.3969 15.7078 21.3967 15.0605V11.9312C21.3967 11.2813 21.1985 10.6763 20.8584 10.1756L20.7718 3.09295C20.6545 2.35828 20.2793 1.68943 19.7135 1.20637C19.1477 0.723308 18.4282 0.457647 17.6843 0.457032H4.24909C3.50455 0.456615 2.78424 0.721679 2.21757 1.20462C1.65089 1.68755 1.27497 2.35672 1.15733 3.09191L1.06763 10.185C0.731748 10.6836 0.535645 11.2844 0.535645 11.9312V15.0605C0.535458 15.7078 0.735982 16.3393 1.1096 16.868C1.48322 17.3967 2.01156 17.7965 2.62185 18.0125V19.7544C2.62185 20.1694 2.7867 20.5674 3.08013 20.8608C3.37356 21.1542 3.77153 21.3191 4.18651 21.3191H5.22961C5.64458 21.3191 6.04256 21.1542 6.33599 20.8608C6.62942 20.5674 6.79426 20.1694 6.79426 19.7544V18.1898ZM17.3025 14.9414C17.1127 15.02 16.9092 15.0605 16.7037 15.0605C16.2888 15.0605 15.8908 14.8956 15.5974 14.6022C15.3039 14.3088 15.1391 13.9108 15.1391 13.4958C15.1391 13.0808 15.3039 12.6829 15.5974 12.3894C15.8908 12.096 16.2888 11.9312 16.7037 11.9312C16.9092 11.9312 17.1127 11.9716 17.3025 12.0503C17.4923 12.1289 17.6648 12.2442 17.8101 12.3894C17.9554 12.5347 18.0707 12.7072 18.1493 12.8971C18.2279 13.0869 18.2684 13.2903 18.2684 13.4958C18.2684 13.7013 18.2279 13.9048 18.1493 14.0946C18.0707 14.2844 17.9554 14.4569 17.8101 14.6022C17.6648 14.7475 17.4923 14.8627 17.3025 14.9414ZM5.82838 14.9414C5.63854 15.02 5.43508 15.0605 5.22961 15.0605C4.81464 15.0605 4.41666 14.8956 4.12323 14.6022C3.8298 14.3088 3.66495 13.9108 3.66495 13.4958C3.66495 13.0808 3.8298 12.6829 4.12323 12.3894C4.41666 12.096 4.81464 11.9312 5.22961 11.9312C5.43508 11.9312 5.63854 11.9716 5.82838 12.0503C6.01821 12.1289 6.1907 12.2442 6.33599 12.3894C6.48128 12.5347 6.59653 12.7072 6.67516 12.8971C6.75379 13.0869 6.79426 13.2903 6.79426 13.4958C6.79426 13.7013 6.75379 13.9048 6.67516 14.0946C6.59653 14.2844 6.48128 14.4569 6.33599 14.6022C6.1907 14.7475 6.01821 14.8627 5.82838 14.9414ZM5.16504 2.54297C4.33661 2.54297 3.66504 3.21454 3.66504 4.04297V9.84469H18.2685V4.04297C18.2685 3.21454 17.5969 2.54297 16.7685 2.54297H5.16504Z" fill="white"/>
</svg>
