<svg width="20" height="21" viewBox="0 0 20 21" fill="none" xmlns="http://www.w3.org/2000/svg">
<path d="M14.0007 17.85H6.0003V19.425C6.0003 19.8427 5.84226 20.2433 5.56094 20.5387C5.27962 20.8341 4.89807 21 4.50023 21H3.50018C3.10233 21 2.72078 20.8341 2.43946 20.5387C2.15814 20.2433 2.0001 19.8427 2.0001 19.425V17.6715C1.415 17.4541 0.908466 17.0517 0.550267 16.5195C0.192069 15.9873 -0.000178937 15.3516 1.24972e-07 14.7V11.55C1.24972e-07 10.899 0.18801 10.2942 0.510026 9.7923L1.59608 2.6523C1.70886 1.91224 2.06927 1.23866 2.61255 0.752528C3.15584 0.266398 3.84641 -0.000419854 4.56023 4.95913e-07H15.4408C16.154 0.000618923 16.8438 0.268037 17.3863 0.75429C17.9287 1.24054 18.2885 1.91382 18.4009 2.65335L19.484 9.78285C19.81 10.2869 20 10.8959 20 11.55V14.7C20.0002 15.3516 19.8079 15.9873 19.4497 16.5195C19.0915 17.0517 18.585 17.4541 17.9999 17.6715V19.425C17.9999 19.8427 17.8419 20.2433 17.5605 20.5387C17.2792 20.8341 16.8977 21 16.4998 21H15.4998C15.1019 21 14.7204 20.8341 14.4391 20.5387C14.1577 20.2433 13.9997 19.8427 13.9997 19.425V17.85H14.0007ZM17.2509 8.4105L16.4268 2.9841C16.3893 2.73777 16.2694 2.51352 16.0888 2.35152C15.9081 2.18952 15.6784 2.10036 15.4408 2.1H4.55923C4.32129 2.09986 4.0911 2.1888 3.91 2.35084C3.72891 2.51289 3.60877 2.73742 3.57118 2.9841L2.74614 8.41155C2.83062 8.40398 2.91536 8.40013 3.00015 8.4H17.0009C17.0849 8.4 17.1689 8.40315 17.2509 8.4105ZM15.5008 14.7C15.6978 14.7 15.8928 14.6593 16.0748 14.5801C16.2568 14.501 16.4222 14.3849 16.5615 14.2387C16.7008 14.0924 16.8113 13.9188 16.8867 13.7277C16.962 13.5366 17.0009 13.3318 17.0009 13.125C17.0009 12.9182 16.962 12.7134 16.8867 12.5223C16.8113 12.3312 16.7008 12.1576 16.5615 12.0113C16.4222 11.8651 16.2568 11.749 16.0748 11.6699C15.8928 11.5907 15.6978 11.55 15.5008 11.55C15.1029 11.55 14.7214 11.7159 14.4401 12.0113C14.1587 12.3067 14.0007 12.7073 14.0007 13.125C14.0007 13.5427 14.1587 13.9433 14.4401 14.2387C14.7214 14.5341 15.1029 14.7 15.5008 14.7ZM4.50023 14.7C4.69722 14.7 4.89228 14.6593 5.07428 14.5801C5.25628 14.501 5.42164 14.3849 5.56094 14.2387C5.70023 14.0924 5.81073 13.9188 5.88611 13.7277C5.9615 13.5366 6.0003 13.3318 6.0003 13.125C6.0003 12.9182 5.9615 12.7134 5.88611 12.5223C5.81073 12.3312 5.70023 12.1576 5.56094 12.0113C5.42164 11.8651 5.25628 11.749 5.07428 11.6699C4.89228 11.5907 4.69722 11.55 4.50023 11.55C4.10238 11.55 3.72083 11.7159 3.43951 12.0113C3.15819 12.3067 3.00015 12.7073 3.00015 13.125C3.00015 13.5427 3.15819 13.9433 3.43951 14.2387C3.72083 14.5341 4.10238 14.7 4.50023 14.7Z" fill="white"/>
</svg>
