<svg width="16" height="20" viewBox="0 0 16 20" fill="none" xmlns="http://www.w3.org/2000/svg">
<path fill-rule="evenodd" clip-rule="evenodd" d="M7.95469 19.4448C7.95469 19.4448 15.9094 14.1417 15.9094 7.95469C15.9094 5.84497 15.0713 3.82167 13.5795 2.32987C12.0877 0.83808 10.0644 0 7.95469 0C5.84497 0 3.82167 0.83808 2.32987 2.32987C0.83808 3.82167 0 5.84497 0 7.95469C0 14.1417 7.95469 19.4448 7.95469 19.4448ZM7.90942 10.5557C9.56628 10.5557 10.9094 9.21252 10.9094 7.55566C10.9094 5.89881 9.56628 4.55566 7.90942 4.55566C6.25257 4.55566 4.90942 5.89881 4.90942 7.55566C4.90942 9.21252 6.25257 10.5557 7.90942 10.5557Z" fill="#DDDDDD"/>
</svg>
