<svg width="16" height="20" viewBox="0 0 16 20" fill="none" xmlns="http://www.w3.org/2000/svg">
<path d="M1.5 1V1.5H2H14C14.3978 1.5 14.7794 1.65804 15.0607 1.93934C15.342 2.22064 15.5 2.60218 15.5 3V10C15.5 10.3978 15.342 10.7794 15.0607 11.0607C14.7794 11.342 14.3978 11.5 14 11.5H2H1.5V12V19C1.5 19.1326 1.44732 19.2598 1.35355 19.3536C1.25979 19.4473 1.13261 19.5 1 19.5C0.867391 19.5 0.740214 19.4473 0.646447 19.3536C0.552679 19.2598 0.5 19.1326 0.5 19V1C0.5 0.867392 0.552678 0.740215 0.646447 0.646447C0.740215 0.552678 0.867392 0.5 1 0.5C1.13261 0.5 1.25979 0.552678 1.35355 0.646447C1.44732 0.740215 1.5 0.867392 1.5 1Z" stroke="#FF7D00"/>
</svg>
