<svg width="18" height="22" viewBox="0 0 18 22" fill="none" xmlns="http://www.w3.org/2000/svg">
<path d="M5.28402 14.2004L4.70867 15.5634H2.10828C1.42135 15.5634 0.864258 16.1292 0.864258 16.8268C0.864258 17.5245 1.42135 18.0903 2.10828 18.0903H5.11919C5.86755 18.0903 6.54126 17.6386 6.83399 16.9417L7.17571 16.1316L6.76091 15.8828C6.08758 15.4789 5.59231 14.8811 5.28402 14.2004ZM15.7925 10.5096H14.0808L13.0677 8.40709C12.5818 7.3983 11.6896 6.66076 10.666 6.39583L7.90269 5.56116C6.80251 5.29267 5.65684 5.53944 4.75998 6.23789L3.21779 7.43857C2.67236 7.86302 2.56895 8.65584 2.98764 9.20978C3.40633 9.76373 4.18657 9.86757 4.7316 9.44352L6.27458 8.24284C6.57275 8.01029 6.95257 7.92698 7.25696 8.00042L7.82843 8.17296L6.37215 11.6234C5.88154 12.7873 6.32123 14.1507 7.39458 14.7943L10.6982 16.7751L9.63032 20.239C9.42505 20.9047 9.7901 21.6134 10.4455 21.8218C10.5696 21.8613 10.6947 21.8803 10.818 21.8803C11.3471 21.8803 11.8377 21.534 12.0044 20.9939L13.2345 17.0037C13.4642 16.1837 13.1221 15.3028 12.3932 14.8562L10.0125 13.4293L11.2297 10.3386L12.0177 11.9744C12.3287 12.6195 12.9864 13.0361 13.6936 13.0361H15.7925C16.4794 13.0361 17.0365 12.4703 17.0365 11.7726C17.0365 11.075 16.4794 10.5096 15.7925 10.5096Z" fill="#969696"/>
<path d="M13.6777 3.05487C13.6777 4.38068 12.6195 5.45543 11.3141 5.45543C10.0087 5.45543 8.95044 4.38068 8.95044 3.05487C8.95044 1.72905 10.0087 0.654297 11.3141 0.654297C12.6195 0.654297 13.6777 1.72905 13.6777 3.05487Z" fill="#969696"/>
</svg>
