<svg width="13" height="16" viewBox="0 0 13 16" fill="none" xmlns="http://www.w3.org/2000/svg">
<path d="M12.5 6.60574C12.5 8.84416 11.049 10.9874 9.50071 12.6217C8.73678 13.4281 7.97117 14.0875 7.39597 14.5456C7.1219 14.7638 6.89198 14.9356 6.72732 15.055C6.56266 14.9356 6.33274 14.7638 6.05867 14.5456C5.48347 14.0875 4.71785 13.4281 3.95393 12.6217C2.40564 10.9874 0.95459 8.84416 0.95459 6.60574C0.95459 5.07471 1.56279 3.6064 2.64538 2.5238C3.72798 1.4412 5.1963 0.833008 6.72732 0.833008C8.25834 0.833008 9.72666 1.4412 10.8093 2.5238C11.8918 3.6064 12.5 5.07471 12.5 6.60574Z" stroke="#D9D9D9" stroke-linecap="round" stroke-linejoin="round"/>
<path d="M8.31805 6.60556C8.31805 7.48419 7.60577 8.19647 6.72714 8.19647C5.8485 8.19647 5.13623 7.48419 5.13623 6.60556C5.13623 5.72692 5.8485 5.01465 6.72714 5.01465C7.60577 5.01465 8.31805 5.72692 8.31805 6.60556Z" stroke="#D9D9D9" stroke-linecap="round" stroke-linejoin="round"/>
</svg>
