<svg width="13" height="13" viewBox="0 0 13 13" fill="none" xmlns="http://www.w3.org/2000/svg">
<path d="M9.1 11.05H3.9V12.025C3.9 12.2836 3.79728 12.5316 3.61443 12.7144C3.43158 12.8973 3.18359 13 2.925 13H2.275C2.01641 13 1.76842 12.8973 1.58557 12.7144C1.40272 12.5316 1.3 12.2836 1.3 12.025V10.9395C0.919701 10.8049 0.590473 10.5558 0.357656 10.2264C0.124838 9.89692 -0.000116303 9.5034 8.12277e-08 9.1V7.15C8.12277e-08 6.747 0.1222 6.3726 0.3315 6.0619L0.3874 1.6419C0.460705 1.18377 0.694955 0.766788 1.04807 0.46585C1.40119 0.164913 1.85004 -0.00025991 2.314 3.06994e-07H10.686C11.1496 0.000383143 11.5979 0.165927 11.9505 0.466941C12.3031 0.767955 12.5369 1.18474 12.61 1.64255L12.664 6.05605C12.8759 6.36805 12.9994 6.74505 12.9994 7.15V9.1C12.9995 9.5034 12.8745 9.89692 12.6417 10.2264C12.4089 10.5558 12.0796 10.8049 11.6994 10.9395V12.025C11.6994 12.2836 11.5966 12.5316 11.4138 12.7144C11.2309 12.8973 10.9829 13 10.7244 13H10.0744C9.81576 13 9.56777 12.8973 9.38492 12.7144C9.20207 12.5316 9.09935 12.2836 9.09935 12.025V11.05H9.1ZM10.075 9.1C10.203 9.1 10.3298 9.07478 10.4481 9.02578C10.5664 8.97678 10.6739 8.90497 10.7644 8.81443C10.855 8.72389 10.9268 8.61641 10.9758 8.49812C11.0248 8.37982 11.05 8.25304 11.05 8.125C11.05 7.99696 11.0248 7.87018 10.9758 7.75188C10.9268 7.63359 10.855 7.52611 10.7644 7.43557C10.6739 7.34503 10.5664 7.27322 10.4481 7.22422C10.3298 7.17522 10.203 7.15 10.075 7.15C9.81641 7.15 9.56842 7.25272 9.38557 7.43557C9.20272 7.61842 9.1 7.86641 9.1 8.125C9.1 8.38359 9.20272 8.63158 9.38557 8.81443C9.56842 8.99728 9.81641 9.1 10.075 9.1ZM2.925 9.1C3.05304 9.1 3.17982 9.07478 3.29812 9.02578C3.41641 8.97678 3.52389 8.90497 3.61443 8.81443C3.70497 8.72389 3.77678 8.61641 3.82578 8.49812C3.87478 8.37982 3.9 8.25304 3.9 8.125C3.9 7.99696 3.87478 7.87018 3.82578 7.75188C3.77678 7.63359 3.70497 7.52611 3.61443 7.43557C3.52389 7.34503 3.41641 7.27322 3.29812 7.22422C3.17982 7.17522 3.05304 7.15 2.925 7.15C2.66641 7.15 2.41842 7.25272 2.23557 7.43557C2.05272 7.61842 1.95 7.86641 1.95 8.125C1.95 8.38359 2.05272 8.63158 2.23557 8.81443C2.41842 8.99728 2.66641 9.1 2.925 9.1Z" fill="#FF7D00"/>
<path d="M1.9502 2.2998C1.9502 1.74752 2.39791 1.2998 2.9502 1.2998H10.0502C10.6025 1.2998 11.0502 1.74752 11.0502 2.2998V5.84981H1.9502V2.2998Z" fill="white"/>
</svg>
