<svg width="10" height="9" viewBox="0 0 10 9" fill="none" xmlns="http://www.w3.org/2000/svg">
<path fill-rule="evenodd" clip-rule="evenodd" d="M3.1848 7.6436H6.78134V8.31804C6.78134 8.49691 6.8524 8.66846 6.97888 8.79494C7.10536 8.92142 7.27691 8.99248 7.45578 8.99248H7.9054C8.08428 8.99248 8.25582 8.92142 8.3823 8.79494C8.50878 8.66846 8.57984 8.49691 8.57984 8.31804V7.56717C8.8429 7.47409 9.07064 7.30174 9.23169 7.07386C9.39273 6.84598 9.47917 6.57378 9.47909 6.29473V4.94586C9.47909 4.66575 9.39366 4.40496 9.24708 4.18914L9.20976 1.1362C9.1592 0.819521 8.99747 0.531217 8.75357 0.322997C8.50967 0.114777 8.19956 0.000265243 7.87888 2.11856e-07H2.08772C1.76679 -0.000179575 1.45631 0.114075 1.21204 0.322242C0.967781 0.53041 0.805744 0.818848 0.755036 1.13575L0.716369 4.19319C0.57159 4.40811 0.487061 4.66709 0.487061 4.94586V6.29473C0.48698 6.57378 0.573415 6.84598 0.734462 7.07386C0.895508 7.30174 1.12324 7.47409 1.38631 7.56717V8.31804C1.38631 8.49691 1.45736 8.66846 1.58385 8.79494C1.71033 8.92142 1.88187 8.99248 2.06074 8.99248H2.51037C2.68924 8.99248 2.86078 8.92142 2.98727 8.79494C3.11375 8.66846 3.1848 8.49691 3.1848 8.31804V7.6436ZM7.71432 6.24339C7.6325 6.27729 7.5448 6.29473 7.45623 6.29473C7.27736 6.29473 7.10581 6.22368 6.97933 6.0972C6.85285 5.97071 6.78179 5.79917 6.78179 5.6203C6.78179 5.44143 6.85285 5.26988 6.97933 5.1434C7.10581 5.01692 7.27736 4.94586 7.45623 4.94586C7.5448 4.94586 7.6325 4.96331 7.71432 4.9972C7.79615 5.03109 7.8705 5.08077 7.93313 5.1434C7.99575 5.20603 8.04543 5.28038 8.07933 5.3622C8.11322 5.44403 8.13066 5.53173 8.13066 5.6203C8.13066 5.70887 8.11322 5.79657 8.07933 5.87839C8.04543 5.96022 7.99575 6.03457 7.93313 6.0972C7.8705 6.15982 7.79615 6.2095 7.71432 6.24339ZM2.76846 6.24339C2.68664 6.27729 2.59894 6.29473 2.51037 6.29473C2.3315 6.29473 2.15995 6.22368 2.03347 6.0972C1.90699 5.97071 1.83593 5.79917 1.83593 5.6203C1.83593 5.44143 1.90699 5.26988 2.03347 5.1434C2.15995 5.01692 2.3315 4.94586 2.51037 4.94586C2.59894 4.94586 2.68664 4.96331 2.76846 4.9972C2.85029 5.03109 2.92464 5.08077 2.98727 5.1434C3.04989 5.20603 3.09957 5.28038 3.13347 5.3622C3.16736 5.44403 3.1848 5.53173 3.1848 5.6203C3.1848 5.70887 3.16736 5.79657 3.13347 5.87839C3.09957 5.96022 3.04989 6.03457 2.98727 6.0972C2.92464 6.15982 2.85029 6.2095 2.76846 6.24339ZM2.33606 0.898438C2.05992 0.898438 1.83606 1.12229 1.83606 1.39844V4.0458H8.13079V1.39844C8.13079 1.1223 7.90694 0.898438 7.63079 0.898438H2.33606Z" fill="#FF7D00"/>
</svg>
