<svg width="14" height="15" viewBox="0 0 14 15" fill="none" xmlns="http://www.w3.org/2000/svg">
<path fill-rule="evenodd" clip-rule="evenodd" d="M4.78051 13.5512C4.49222 14.3953 3.71435 15 2.8 15C1.6402 15 0.7 14.027 0.7 12.8268C0.7 11.6266 1.6402 10.6537 2.8 10.6537C3.71435 10.6537 4.49222 11.2584 4.78051 12.1024H10.85C11.8165 12.1024 12.6 11.2916 12.6 10.2915C12.6 9.2913 11.8165 8.4805 10.85 8.4805H3.15C1.4103 8.4805 0 7.02106 0 5.22075C0 3.42044 1.4103 1.961 3.15 1.961H5.31005L4.40503 1.02444L5.39497 0L7.98995 2.68539L5.39497 5.37077L4.40503 4.34633L5.31005 3.40978H3.15C2.1835 3.40978 1.4 4.22058 1.4 5.22075C1.4 6.22092 2.1835 7.03172 3.15 7.03172H10.85C12.5897 7.03172 14 8.49116 14 10.2915C14 12.0918 12.5897 13.5512 10.85 13.5512H4.78051ZM2.8 12.1024C2.4134 12.1024 2.1 12.4268 2.1 12.8268C2.1 13.2269 2.4134 13.5512 2.8 13.5512C3.1866 13.5512 3.5 13.2269 3.5 12.8268C3.5 12.4268 3.1866 12.1024 2.8 12.1024ZM11.2 0.51222C12.3598 0.51222 13.3 1.48518 13.3 2.68539C13.3 3.88559 12.3598 4.85855 11.2 4.85855C10.0402 4.85855 9.1 3.88559 9.1 2.68539C9.1 1.48518 10.0402 0.51222 11.2 0.51222ZM11.2 1.961C10.8134 1.961 10.5 2.28532 10.5 2.68539C10.5 3.08546 10.8134 3.40978 11.2 3.40978C11.5866 3.40978 11.9 3.08546 11.9 2.68539C11.9 2.28532 11.5866 1.961 11.2 1.961Z" fill="#969696"/>
</svg>
