<svg width="16" height="17" viewBox="0 0 16 17" fill="none" xmlns="http://www.w3.org/2000/svg">
<path fill-rule="evenodd" clip-rule="evenodd" d="M5.46344 15.3581C5.13397 16.3146 4.24498 17 3.2 17C1.87452 17 0.8 15.8973 0.8 14.5371C0.8 13.1768 1.87452 12.0742 3.2 12.0742C4.24498 12.0742 5.13397 12.7595 5.46344 13.7161H12.4C13.5046 13.7161 14.4 12.7972 14.4 11.6637C14.4 10.5301 13.5046 9.61123 12.4 9.61123H3.6C1.61177 9.61123 0 7.9572 0 5.91685C0 3.8765 1.61177 2.22246 3.6 2.22246H6.06863L5.03431 1.16103L6.16569 0L9.13137 3.04344L6.16569 6.08688L5.03431 4.92585L6.06863 3.86441H3.6C2.49543 3.86441 1.6 4.78332 1.6 5.91685C1.6 7.05038 2.49543 7.96928 3.6 7.96928H12.4C14.3882 7.96928 16 9.62332 16 11.6637C16 13.704 14.3882 15.3581 12.4 15.3581H5.46344ZM3.2 13.7161C2.75817 13.7161 2.4 14.0837 2.4 14.5371C2.4 14.9905 2.75817 15.3581 3.2 15.3581C3.64183 15.3581 4 14.9905 4 14.5371C4 14.0837 3.64183 13.7161 3.2 13.7161ZM12.8 0.580516C14.1255 0.580516 15.2 1.6832 15.2 3.04344C15.2 4.40367 14.1255 5.50636 12.8 5.50636C11.4745 5.50636 10.4 4.40367 10.4 3.04344C10.4 1.6832 11.4745 0.580516 12.8 0.580516ZM12.8 2.22246C12.3582 2.22246 12 2.59003 12 3.04344C12 3.49685 12.3582 3.86441 12.8 3.86441C13.2418 3.86441 13.6 3.49685 13.6 3.04344C13.6 2.59003 13.2418 2.22246 12.8 2.22246Z" fill="#D9D9D9"/>
</svg>
