<svg width="12" height="17" viewBox="0 0 12 17" fill="none" xmlns="http://www.w3.org/2000/svg">
<path d="M3.00024 13.8769C3.23049 14.0269 3.52449 14.0719 3.80049 13.9766L5.70249 13.3286C5.89553 13.2628 6.10495 13.2628 6.29799 13.3286L8.19999 13.9766C8.47599 14.0711 8.76999 14.0269 9.00024 13.8769V16.7974L6.00024 15.7789L3.00024 16.7974V13.8769ZM5.75799 12.0994L4.21149 12.6266C4.03836 12.6856 3.84965 12.6792 3.68086 12.6088C3.51208 12.5384 3.37485 12.4087 3.29499 12.2441L2.54124 10.6954C2.47199 10.5523 2.35906 10.4349 2.21874 10.3601L0.718741 9.56513C0.564374 9.48303 0.443538 9.34959 0.377119 9.18785C0.310701 9.02612 0.302874 8.84627 0.354991 8.67938L0.887491 6.97463C0.932926 6.82909 0.932926 6.67316 0.887491 6.52763L0.354991 4.82288C0.302738 4.6558 0.310576 4.47571 0.377147 4.3138C0.443717 4.15189 0.564826 4.01838 0.719491 3.93638L2.21874 3.14138C2.35894 3.06683 2.47186 2.9497 2.54124 2.80688L3.29499 1.25588C3.37498 1.09147 3.51226 0.961943 3.68103 0.891643C3.84981 0.821344 4.03845 0.815114 4.21149 0.874127L5.75799 1.40138C5.91504 1.45498 6.08544 1.45498 6.24249 1.40138L7.78899 0.874127C7.96212 0.815169 8.15083 0.821508 8.31962 0.891951C8.48841 0.962394 8.62564 1.09208 8.70549 1.25663L9.45924 2.80613C9.52849 2.94923 9.64143 3.06663 9.78174 3.14138L11.2817 3.93638C11.4361 4.01847 11.5569 4.15192 11.6234 4.31365C11.6898 4.47538 11.6976 4.65524 11.6455 4.82213L11.113 6.52688C11.0676 6.67241 11.0676 6.82834 11.113 6.97388L11.6455 8.67863C11.6977 8.8457 11.6899 9.0258 11.6233 9.1877C11.5568 9.34961 11.4357 9.48313 11.281 9.56513L9.78174 10.3601C9.64154 10.4347 9.52862 10.5518 9.45924 10.6946L8.70549 12.2449C8.62551 12.4093 8.48822 12.5388 8.31945 12.6091C8.15068 12.6794 7.96204 12.6856 7.78899 12.6266L6.24249 12.0994C6.08544 12.0458 5.91504 12.0458 5.75799 12.0994ZM6.00024 4.50038C5.80133 4.50038 5.61056 4.57939 5.46991 4.72005C5.32926 4.8607 5.25024 5.05146 5.25024 5.25038V8.25038C5.25024 8.44929 5.32926 8.64005 5.46991 8.78071C5.61056 8.92136 5.80133 9.00038 6.00024 9.00038C6.19915 9.00038 6.38992 8.92136 6.53057 8.78071C6.67122 8.64005 6.75024 8.44929 6.75024 8.25038V5.25038C6.75024 5.05146 6.67122 4.8607 6.53057 4.72005C6.38992 4.57939 6.19915 4.50038 6.00024 4.50038Z" fill="#B68181"/>
</svg>
