<svg width="13" height="13" viewBox="0 0 13 13" fill="none" xmlns="http://www.w3.org/2000/svg">
<path d="M6.5 13C2.91005 13 0 10.0899 0 6.5C0 2.91005 2.91005 0 6.5 0C10.0899 0 13 2.91005 13 6.5C13 10.0899 10.0899 13 6.5 13ZM6.5 11.7C7.87913 11.7 9.20177 11.1521 10.177 10.177C11.1521 9.20177 11.7 7.87913 11.7 6.5C11.7 5.12087 11.1521 3.79823 10.177 2.82304C9.20177 1.84786 7.87913 1.3 6.5 1.3C5.12087 1.3 3.79823 1.84786 2.82304 2.82304C1.84786 3.79823 1.3 5.12087 1.3 6.5C1.3 7.87913 1.84786 9.20177 2.82304 10.177C3.79823 11.1521 5.12087 11.7 6.5 11.7ZM5.85 8.45H7.15V9.75H5.85V8.45ZM7.15 7.38075V7.8H5.85V6.825C5.85 6.65261 5.91848 6.48728 6.04038 6.36538C6.16228 6.24348 6.32761 6.175 6.5 6.175C6.68465 6.17499 6.8655 6.12254 7.02151 6.02376C7.17752 5.92499 7.30227 5.78394 7.38125 5.61703C7.46023 5.45012 7.49019 5.26422 7.46764 5.08095C7.4451 4.89768 7.37097 4.72458 7.25389 4.58179C7.13681 4.439 6.98159 4.3324 6.80629 4.27438C6.63099 4.21636 6.44282 4.20931 6.26368 4.25406C6.08453 4.2988 5.92177 4.3935 5.79434 4.52713C5.66691 4.66076 5.58004 4.82783 5.54385 5.0089L4.26855 4.75345C4.34761 4.3583 4.53018 3.99124 4.7976 3.68978C5.06502 3.38832 5.40769 3.16328 5.79058 3.03766C6.17348 2.91204 6.58287 2.89035 6.97689 2.9748C7.37092 3.05925 7.73546 3.24682 8.03323 3.51834C8.33101 3.78985 8.55135 4.13556 8.67172 4.52014C8.7921 4.90472 8.80819 5.31436 8.71836 5.7072C8.62853 6.10004 8.436 6.46197 8.16044 6.75601C7.88488 7.05005 7.53619 7.26564 7.15 7.38075Z" fill="#969696"/>
</svg>
