<svg width="7" height="11" viewBox="0 0 7 11" fill="none" xmlns="http://www.w3.org/2000/svg">
<path d="M2.06779 5.99986L5.78028 2.28736C5.85192 2.21818 5.90905 2.13542 5.94836 2.04392C5.98767 1.95241 6.00836 1.854 6.00922 1.75442C6.01009 1.65483 5.99111 1.55607 5.9534 1.4639C5.91569 1.37173 5.86 1.28799 5.78958 1.21757C5.71916 1.14715 5.63542 1.09146 5.54325 1.05375C5.45108 1.01604 5.35232 0.997061 5.25273 0.997926C5.15315 0.998792 5.05473 1.01948 4.96323 1.05879C4.87173 1.0981 4.78897 1.15523 4.71979 1.22686L0.477036 5.46961C0.336432 5.61026 0.257446 5.80099 0.257446 5.99986C0.257446 6.19874 0.336432 6.38947 0.477036 6.53011L4.71979 10.7729C4.86124 10.9095 5.05069 10.9851 5.24734 10.9834C5.44398 10.9817 5.63209 10.9028 5.77115 10.7637C5.91021 10.6247 5.98908 10.4366 5.99079 10.2399C5.9925 10.0433 5.9169 9.85382 5.78029 9.71236L2.06779 5.99986Z" fill="white"/>
</svg>
