<svg width="44" height="44" viewBox="0 0 44 44" fill="none" xmlns="http://www.w3.org/2000/svg">
<circle cx="22" cy="22" r="22" fill="#FBD970"/>
<path d="M44 22C44 34.1503 34.1503 44 22 44C9.84974 44 0 34.1503 0 22C0 9.84974 9.84974 0 22 0C34.1503 0 44 9.84974 44 22Z" fill="url(#paint0_radial_331_3014)"/>
<path d="M22.9353 14.8935C22.9353 15.4128 22.4301 15.8339 21.8069 15.8339C21.1837 15.8339 20.6785 15.4128 20.6785 14.8935C20.6785 14.3741 21.1837 13.9531 21.8069 13.9531C22.4301 13.9531 22.9353 14.3741 22.9353 14.8935Z" fill="#FBD970"/>
<path d="M19.9272 13.0899C19.9272 14.3363 19.3378 15.3468 18.6107 15.3468C17.8836 15.3468 17.2942 14.3363 17.2942 13.0899C17.2942 11.8434 17.8836 10.833 18.6107 10.833C19.3378 10.833 19.9272 11.8434 19.9272 13.0899Z" fill="#303030"/>
<path d="M26.3217 13.0899C26.3217 14.3363 25.7323 15.3468 25.0052 15.3468C24.2781 15.3468 23.6887 14.3363 23.6887 13.0899C23.6887 11.8434 24.2781 10.833 25.0052 10.833C25.7323 10.833 26.3217 11.8434 26.3217 13.0899Z" fill="#303030"/>
<path d="M26.3217 13.0899C26.3217 14.3363 25.7323 15.3468 25.0052 15.3468C24.2781 15.3468 23.6887 14.3363 23.6887 13.0899C23.6887 11.8434 24.2781 10.833 25.0052 10.833C25.7323 10.833 26.3217 11.8434 26.3217 13.0899Z" fill="#303030"/>
<path d="M26.3217 13.0899C26.3217 14.3363 25.7323 15.3468 25.0052 15.3468C24.2781 15.3468 23.6887 14.3363 23.6887 13.0899C23.6887 11.8434 24.2781 10.833 25.0052 10.833C25.7323 10.833 26.3217 11.8434 26.3217 13.0899Z" fill="#303030"/>
<path fill-rule="evenodd" clip-rule="evenodd" d="M24.0336 16.4879C24.2398 16.4306 24.4535 16.5513 24.5109 16.7575C24.538 16.8552 24.612 17.0146 24.7316 17.1377C24.8428 17.252 24.9797 17.324 25.1649 17.3112C25.3785 17.2964 25.5636 17.4576 25.5784 17.6711C25.5931 17.8847 25.432 18.0698 25.2184 18.0845C24.9401 18.1038 24.7025 18.039 24.5063 17.9315C23.3425 18.869 22.1825 19.0984 21.1677 18.9529C20.1137 18.8018 19.2529 18.2524 18.725 17.7575C18.5689 17.6111 18.561 17.3658 18.7074 17.2097C18.8538 17.0535 19.0991 17.0456 19.2552 17.192C19.6989 17.608 20.4195 18.0625 21.2777 18.1856C22.0537 18.2968 22.9738 18.1425 23.9491 17.384C23.8576 17.2338 23.7973 17.0849 23.764 16.9651C23.7067 16.7589 23.8274 16.5452 24.0336 16.4879Z" fill="#303030"/>
<defs>
<radialGradient id="paint0_radial_331_3014" cx="0" cy="0" r="1" gradientUnits="userSpaceOnUse" gradientTransform="translate(22.1835 9.7034) rotate(90) scale(36.2981 40.947)">
<stop stop-color="#FFAA47"/>
<stop offset="1" stop-color="#FF7324" stop-opacity="0"/>
</radialGradient>
</defs>
</svg>
