<svg width="18" height="25" viewBox="0 0 18 25" fill="none" xmlns="http://www.w3.org/2000/svg">
<path d="M2.75603 0C2.25493 0 1.79559 0.166666 1.37801 0.499999C0.960429 0.816666 0.626369 1.25 0.375821 1.8C0.125272 2.35 0 2.95 0 3.6C0 4.25 0.125272 4.85833 0.375821 5.425C0.626369 5.975 0.960429 6.41667 1.37801 6.75C1.79559 7.06667 2.25493 7.225 2.75603 7.225C3.25713 7.225 3.71646 7.06667 4.13404 6.75C4.55162 6.41667 4.87734 5.975 5.11118 5.425C5.36173 4.85833 5.487 4.25 5.487 3.6C5.487 2.95 5.36173 2.35 5.11118 1.8C4.87734 1.25 4.54327 0.816666 4.10898 0.499999C3.6914 0.166666 3.24042 0 2.75603 0ZM14.6821 0C14.1977 0 13.7384 0.166666 13.3041 0.499999C12.8865 0.816666 12.5525 1.25 12.3019 1.8C12.0681 2.35 11.9511 2.95 11.9511 3.6C11.9511 4.25 12.0681 4.85833 12.3019 5.425C12.5525 5.975 12.8865 6.41667 13.3041 6.75C13.7217 7.06667 14.181 7.225 14.6821 7.225C15.1832 7.225 15.6426 7.06667 16.0601 6.75C16.4777 6.41667 16.8118 5.975 17.0623 5.425C17.3129 4.85833 17.4382 4.25 17.4382 3.6C17.4382 2.95 17.3129 2.35 17.0623 1.8C16.8118 1.25 16.4777 0.816666 16.0601 0.499999C15.6426 0.166666 15.1832 0 14.6821 0ZM8.29314 10.8C7.6083 10.8 6.95688 10.9333 6.33886 11.2C5.72084 11.45 5.178 11.8083 4.71031 12.275C4.24262 12.7417 3.87514 13.2917 3.60789 13.925C3.34064 14.5417 3.20701 15.1917 3.20701 15.875V19.925C3.20701 20.6083 3.33228 21.25 3.58283 21.85C3.85008 22.4667 4.21756 23.0083 4.68525 23.475C5.15294 23.9583 5.69579 24.3333 6.3138 24.6C6.94853 24.8667 7.6083 25 8.29314 25H9.14501C9.82984 25 10.4813 24.8667 11.0993 24.6C11.734 24.3333 12.2769 23.9667 12.7278 23.5C13.1955 23.05 13.563 22.5083 13.8302 21.875C14.0975 21.2583 14.2311 20.6083 14.2311 19.925V15.875C14.2311 15.1917 14.0975 14.5417 13.8302 13.925C13.5797 13.3083 13.2206 12.7667 12.7529 12.3C12.2852 11.8333 11.734 11.4667 11.0993 11.2C10.4813 10.9333 9.82984 10.8 9.14501 10.8H8.29314ZM8.29314 13.475H9.14501C9.46237 13.475 9.76301 13.5417 10.047 13.675C10.3476 13.7917 10.6065 13.9583 10.8237 14.175C11.3081 14.6583 11.5503 15.225 11.5503 15.875V19.925C11.5503 20.2417 11.4835 20.55 11.3498 20.85C11.2329 21.1333 11.0659 21.3833 10.8487 21.6C10.3643 22.0833 9.79643 22.325 9.14501 22.325V22.3H8.29314V22.325C7.64171 22.325 7.0738 22.0833 6.58941 21.6C6.37227 21.3833 6.19688 21.1333 6.06326 20.85C5.94633 20.55 5.88788 20.2417 5.88788 19.925V15.875C5.88788 15.5583 5.94633 15.2583 6.06326 14.975C6.19688 14.675 6.37227 14.4167 6.58941 14.2C7.0738 13.7167 7.64171 13.475 8.29314 13.475Z" fill="#DDDDDD"/>
</svg>
