<svg width="13" height="19" viewBox="0 0 13 19" fill="none" xmlns="http://www.w3.org/2000/svg">
<path d="M2.0546 0C1.68103 0 1.3386 0.126667 1.02729 0.38C0.715991 0.620666 0.466953 0.95 0.280171 1.368C0.0933896 1.786 0 2.242 0 2.736C0 3.23 0.0933896 3.69233 0.280171 4.123C0.466953 4.541 0.715991 4.87667 1.02729 5.13C1.3386 5.37067 1.68103 5.491 2.0546 5.491C2.42816 5.491 2.77059 5.37067 3.08189 5.13C3.39319 4.87667 3.63602 4.541 3.81034 4.123C3.99713 3.69233 4.09052 3.23 4.09052 2.736C4.09052 2.242 3.99713 1.786 3.81034 1.368C3.63602 0.95 3.38697 0.620666 3.06321 0.38C2.75191 0.126667 2.41571 0 2.0546 0ZM10.9454 0C10.5843 0 10.2418 0.126667 9.91809 0.38C9.60679 0.620666 9.35775 0.95 9.17097 1.368C8.99664 1.786 8.90947 2.242 8.90947 2.736C8.90947 3.23 8.99664 3.69233 9.17097 4.123C9.35775 4.541 9.60679 4.87667 9.91809 5.13C10.2294 5.37067 10.5718 5.491 10.9454 5.491C11.319 5.491 11.6614 5.37067 11.9727 5.13C12.284 4.87667 12.533 4.541 12.7198 4.123C12.9066 3.69233 13 3.23 13 2.736C13 2.242 12.9066 1.786 12.7198 1.368C12.533 0.95 12.284 0.620666 11.9727 0.38C11.6614 0.126667 11.319 0 10.9454 0ZM6.18246 8.208C5.67193 8.208 5.1863 8.30933 4.72557 8.512C4.26484 8.702 3.86015 8.97433 3.51149 9.329C3.16283 9.68367 2.88888 10.1017 2.68965 10.583C2.49042 11.0517 2.3908 11.5457 2.3908 12.065V15.143C2.3908 15.6623 2.48419 16.15 2.67097 16.606C2.8702 17.0747 3.14415 17.4863 3.49281 17.841C3.84147 18.2083 4.24616 18.4933 4.70689 18.696C5.18007 18.8987 5.67193 19 6.18246 19H6.81753C7.32806 19 7.81369 18.8987 8.27442 18.696C8.7476 18.4933 9.15229 18.2147 9.4885 17.86C9.83716 17.518 10.1111 17.1063 10.3103 16.625C10.5096 16.1563 10.6092 15.6623 10.6092 15.143V12.065C10.6092 11.5457 10.5096 11.0517 10.3103 10.583C10.1235 10.1143 9.85583 9.70267 9.50718 9.348C9.15852 8.99333 8.7476 8.71467 8.27442 8.512C7.81369 8.30933 7.32806 8.208 6.81753 8.208H6.18246ZM6.18246 10.241H6.81753C7.05412 10.241 7.27824 10.2917 7.48993 10.393C7.71407 10.4817 7.90707 10.6083 8.06895 10.773C8.43006 11.1403 8.61062 11.571 8.61062 12.065V15.143C8.61062 15.3837 8.56082 15.618 8.4612 15.846C8.37404 16.0613 8.24952 16.2513 8.08764 16.416C7.72653 16.7833 7.30316 16.967 6.81753 16.967V16.948H6.18246V16.967C5.69683 16.967 5.27346 16.7833 4.91235 16.416C4.75047 16.2513 4.61972 16.0613 4.52011 15.846C4.43294 15.618 4.38937 15.3837 4.38937 15.143V12.065C4.38937 11.8243 4.43294 11.5963 4.52011 11.381C4.61972 11.153 4.75047 10.9567 4.91235 10.792C5.27346 10.4247 5.69683 10.241 6.18246 10.241Z" fill="#DDDDDD"/>
</svg>
