<svg width="14" height="14" viewBox="0 0 14 14" fill="none" xmlns="http://www.w3.org/2000/svg">
<path d="M10.3173 14C9.99367 13.9998 9.67224 13.9474 9.36533 13.8449C7.22215 13.1269 5.27426 11.9227 3.67414 10.3267C2.07773 8.72724 0.873471 6.77994 0.155723 4.63737C-0.0341885 4.07344 -0.0507852 3.46557 0.108073 2.89213C0.266931 2.31869 0.593959 1.80596 1.04699 1.42007L2.15525 0.470687C2.35448 0.299932 2.58605 0.171021 2.83617 0.0916351C3.08629 0.0122491 3.34983 -0.0159869 3.61109 0.00860968C3.87235 0.0332063 4.12599 0.110132 4.35688 0.234803C4.58778 0.359474 4.79121 0.529339 4.95505 0.734276L6.36137 2.49367C6.58609 2.77567 6.71846 3.12003 6.74048 3.47991C6.7625 3.83978 6.6731 4.19771 6.48445 4.50499L5.84283 5.54593C5.77383 5.6576 5.74453 5.78927 5.75967 5.91965C5.7748 6.05002 5.83349 6.17149 5.92624 6.26438L7.73444 8.07218C7.82725 8.16485 7.9486 8.22355 8.07888 8.23879C8.20916 8.25402 8.34078 8.22491 8.45248 8.15615L9.49424 7.51468C9.80148 7.32574 10.1595 7.23617 10.5196 7.25819C10.8796 7.28021 11.2241 7.41275 11.506 7.63772L13.2658 9.04547C13.4707 9.20933 13.6406 9.41273 13.7652 9.64357C13.8899 9.87442 13.9668 10.128 13.9914 10.3892C14.016 10.6503 13.9878 10.9138 13.9084 11.1638C13.829 11.4139 13.7002 11.6454 13.5295 11.8446L12.5799 12.9526C12.3008 13.2803 11.9541 13.5437 11.5635 13.7245C11.1729 13.9053 10.7477 13.9993 10.3173 14ZM3.42683 1.16698C3.23893 1.16685 3.05722 1.2341 2.9147 1.35651L1.80586 2.30589C1.5295 2.54124 1.32997 2.85394 1.23298 3.20368C1.13598 3.55343 1.14597 3.9242 1.26165 4.26823C1.92237 6.23919 3.03037 8.03055 4.49892 9.50209C5.97102 10.9702 7.76298 12.0777 9.73456 12.738C10.0786 12.8538 10.4494 12.8638 10.7992 12.767C11.1491 12.6701 11.4619 12.4707 11.6973 12.1945L12.6464 11.0865C12.7152 11.0062 12.7672 10.9129 12.7991 10.812C12.8311 10.7112 12.8425 10.605 12.8325 10.4997C12.8226 10.3944 12.7915 10.2921 12.7412 10.1991C12.6908 10.1061 12.6223 10.0241 12.5396 9.95812L10.7798 8.55037C10.6859 8.47523 10.571 8.43098 10.4509 8.42367C10.3308 8.41636 10.2114 8.44636 10.109 8.50955L9.06785 9.15102C8.73306 9.35894 8.33766 9.44722 7.9462 9.40147C7.55475 9.35571 7.19037 9.17861 6.91259 8.8991L5.10438 7.0913C4.82438 6.81322 4.647 6.4484 4.60123 6.05648C4.55546 5.66456 4.644 5.26871 4.8524 4.93361L5.49402 3.89267C5.55722 3.79032 5.58722 3.67094 5.57991 3.55088C5.5726 3.43082 5.52834 3.31596 5.45319 3.22204L4.04279 1.46323C3.96912 1.37059 3.87545 1.29582 3.76877 1.24451C3.6621 1.19321 3.5452 1.1667 3.42683 1.16698Z" fill="#D9D9D9"/>
</svg>
