<svg width="20" height="20" viewBox="0 0 20 20" fill="none" xmlns="http://www.w3.org/2000/svg">
<path d="M5.29918 6.50637L6.62751 6.0997C6.73219 6.06769 6.84214 6.05661 6.9511 6.06709C7.06006 6.07758 7.16588 6.10942 7.26253 6.1608C7.35918 6.21218 7.44476 6.2821 7.51439 6.36656C7.58402 6.45101 7.63634 6.54836 7.66835 6.65303C7.70036 6.75771 7.71144 6.86766 7.70095 6.97662C7.69047 7.08557 7.65863 7.1914 7.60724 7.28805C7.55586 7.3847 7.48595 7.47028 7.40149 7.53991C7.31703 7.60954 7.21969 7.66186 7.11502 7.69387L3.92751 8.66887C3.82279 8.70088 3.71277 8.71195 3.60377 8.70142C3.49476 8.69089 3.3889 8.65898 3.29224 8.60752C3.19557 8.55605 3.11 8.48603 3.04041 8.40147C2.97082 8.31691 2.91858 8.21946 2.88668 8.1147L1.91168 4.9272C1.87967 4.82252 1.86859 4.71257 1.87908 4.60361C1.88956 4.49466 1.9214 4.38883 1.97278 4.29218C2.02417 4.19553 2.09408 4.10995 2.17854 4.04032C2.263 3.97069 2.36034 3.91838 2.46501 3.88637C2.67641 3.82172 2.90484 3.8437 3.10003 3.94747C3.29522 4.05124 3.4412 4.2283 3.50585 4.4397L3.87251 5.64053C5.87918 2.5497 9.86001 1.22053 13.3942 2.66887C14.4511 3.10208 15.4002 3.76165 16.1748 4.60116C16.9494 5.44068 17.5306 6.43973 17.8775 7.52803C17.9131 7.63287 17.9274 7.74374 17.9196 7.85417C17.9119 7.9646 17.8822 8.07238 17.8323 8.17121C17.7824 8.27004 17.7133 8.35794 17.6291 8.42978C17.5449 8.50162 17.4472 8.55596 17.3417 8.58962C17.2363 8.62328 17.1252 8.63559 17.0149 8.62583C16.9046 8.61606 16.7974 8.58443 16.6995 8.53277C16.6016 8.48111 16.5149 8.41046 16.4446 8.32494C16.3743 8.23942 16.3218 8.14075 16.29 8.0347C15.938 6.92917 15.2804 5.94577 14.3933 5.19803C13.5061 4.45029 12.4256 3.96872 11.2764 3.80891C10.1272 3.6491 8.9563 3.81757 7.8988 4.29488C6.8413 4.77218 5.93953 5.53885 5.29918 6.50637ZM15.5717 13.3355L14.0925 13.7047C13.9854 13.7341 13.8735 13.7417 13.7634 13.7272C13.6533 13.7128 13.5472 13.6764 13.4513 13.6203C13.3555 13.5642 13.2718 13.4896 13.2052 13.4007C13.1386 13.3118 13.0905 13.2105 13.0636 13.1028C13.0367 12.995 13.0316 12.883 13.0487 12.7732C13.0657 12.6635 13.1045 12.5582 13.1628 12.4637C13.2211 12.3692 13.2977 12.2872 13.3881 12.2227C13.4784 12.1582 13.5808 12.1124 13.6892 12.088L16.725 11.3305C16.8832 11.2553 17.0611 11.2319 17.2333 11.2639C17.3993 11.2857 17.5548 11.357 17.6797 11.4685C17.8045 11.5799 17.8929 11.7264 17.9333 11.8889L18.74 15.1222C18.7878 15.3346 18.7506 15.5572 18.6364 15.7425C18.5221 15.9278 18.3399 16.061 18.1287 16.1137C17.9175 16.1664 17.6941 16.1343 17.5062 16.0244C17.3183 15.9145 17.1809 15.7355 17.1233 15.5255L16.8483 14.4239C16.046 15.5785 14.9471 16.4954 13.6673 17.0779C12.3876 17.6604 10.9745 17.887 9.57682 17.7338C8.17914 17.5805 6.84865 17.0532 5.72552 16.2073C4.60239 15.3614 3.72819 14.2282 3.19501 12.9272L2.97835 12.3989C2.93687 12.2976 2.91575 12.1891 2.91619 12.0797C2.91663 11.9702 2.93862 11.8619 2.98091 11.761C3.0232 11.6601 3.08496 11.5684 3.16266 11.4914C3.24036 11.4143 3.33248 11.3533 3.43376 11.3118C3.63831 11.228 3.86776 11.2289 4.07163 11.3143C4.17257 11.3566 4.2642 11.4184 4.34128 11.4961C4.41835 11.5738 4.47937 11.6659 4.52085 11.7672L4.73751 12.2947C5.16231 13.3312 5.86209 14.2321 6.76136 14.9C7.66062 15.5679 8.72522 15.9776 9.84027 16.0848C10.9553 16.192 12.0785 15.9927 13.0885 15.5083C14.0986 15.024 14.9572 14.2721 15.5717 13.3355Z" fill="#969696"/>
</svg>
