<svg width="20" height="20" viewBox="0 0 20 20" fill="none" xmlns="http://www.w3.org/2000/svg">
<g clip-path="url(#clip0_331_5565)">
<path d="M7.49998 10C7.49998 9.54 7.87415 9.16667 8.33331 9.16667C8.79248 9.16667 9.16664 9.54 9.16664 10C9.16664 10.46 8.79248 10.8333 8.33331 10.8333C7.87415 10.8333 7.49998 10.46 7.49998 10ZM5.83331 10C5.83331 11.3808 6.95248 12.5 8.33331 12.5C9.71415 12.5 10.8333 11.3808 10.8333 10C10.8333 8.61917 9.71415 7.5 8.33331 7.5C6.95248 7.5 5.83331 8.61917 5.83331 10ZM9.16664 17.5C9.16665 18.8808 10.2858 20 11.6666 20C13.0475 20 14.1666 18.8808 14.1666 17.5C14.1666 16.1192 13.0475 15 11.6666 15C10.2858 15 9.16664 16.1192 9.16664 17.5ZM9.16664 2.5C9.16664 3.88083 10.2858 5 11.6666 5C13.0475 5 14.1666 3.88083 14.1666 2.5C14.1666 1.11917 13.0475 -5.33898e-07 11.6666 -4.7354e-07C10.2858 -4.13182e-07 9.16664 1.11917 9.16664 2.5ZM4.16665 10C4.16665 9.71417 4.19581 9.43583 4.25081 9.16667L1.66665 9.16667C1.20665 9.16667 0.833313 9.53917 0.833313 10C0.833313 10.4608 1.20665 10.8333 1.66665 10.8333L4.25081 10.8333C4.19581 10.5642 4.16665 10.2858 4.16665 10ZM7.49998 2.5C7.49998 2.21417 7.52914 1.93583 7.58414 1.66667L1.66665 1.66667C1.20665 1.66667 0.833312 2.03917 0.833312 2.5C0.833312 2.96083 1.20665 3.33333 1.66665 3.33333L7.58414 3.33333C7.52914 3.06417 7.49998 2.78583 7.49998 2.5ZM15.8333 2.5C15.8333 2.78583 15.8041 3.06417 15.7491 3.33333L18.3333 3.33333C18.7933 3.33333 19.1666 2.96083 19.1666 2.5C19.1666 2.03917 18.7933 1.66667 18.3333 1.66667L15.7491 1.66667C15.8041 1.93583 15.8333 2.21417 15.8333 2.5ZM7.49998 17.5C7.49998 17.2142 7.52915 16.9358 7.58415 16.6667L1.66665 16.6667C1.20665 16.6667 0.833313 17.0392 0.833313 17.5C0.833313 17.9608 1.20665 18.3333 1.66665 18.3333L7.58415 18.3333C7.52915 18.0642 7.49998 17.7858 7.49998 17.5ZM12.5 10C12.5 10.2858 12.4708 10.5642 12.4158 10.8333L18.3333 10.8333C18.7933 10.8333 19.1666 10.4608 19.1666 10C19.1666 9.53917 18.7933 9.16667 18.3333 9.16667L12.4158 9.16667C12.4708 9.43583 12.5 9.71417 12.5 10ZM15.8333 17.5C15.8333 17.7858 15.8041 18.0642 15.7491 18.3333L18.3333 18.3333C18.7933 18.3333 19.1666 17.9608 19.1666 17.5C19.1666 17.0392 18.7933 16.6667 18.3333 16.6667L15.7491 16.6667C15.8041 16.9358 15.8333 17.2142 15.8333 17.5Z" fill="white"/>
</g>
<defs>
<clipPath id="clip0_331_5565">
<rect width="20" height="20" fill="white" transform="translate(0 20) rotate(-90)"/>
</clipPath>
</defs>
</svg>
