<svg width="20" height="20" viewBox="0 0 20 20" fill="none" xmlns="http://www.w3.org/2000/svg">
<path d="M7.50016 10C7.50016 9.54 7.87433 9.16667 8.33349 9.16667C8.79266 9.16667 9.16683 9.54 9.16683 10C9.16683 10.46 8.79266 10.8333 8.33349 10.8333C7.87433 10.8333 7.50016 10.46 7.50016 10ZM5.8335 10C5.8335 11.3808 6.95266 12.5 8.33349 12.5C9.71433 12.5 10.8335 11.3808 10.8335 10C10.8335 8.61917 9.71433 7.5 8.33349 7.5C6.95266 7.5 5.8335 8.61917 5.8335 10ZM9.16683 17.5C9.16683 18.8808 10.286 20 11.6668 20C13.0477 20 14.1668 18.8808 14.1668 17.5C14.1668 16.1192 13.0477 15 11.6668 15C10.286 15 9.16683 16.1192 9.16683 17.5ZM9.16683 2.5C9.16683 3.88083 10.286 5 11.6668 5C13.0477 5 14.1668 3.88083 14.1668 2.5C14.1668 1.11917 13.0477 -5.33898e-07 11.6668 -4.7354e-07C10.286 -4.13182e-07 9.16683 1.11917 9.16683 2.5ZM4.16683 10C4.16683 9.71417 4.196 9.43583 4.251 9.16667L1.66683 9.16667C1.20683 9.16667 0.833496 9.53917 0.833496 10C0.833496 10.4608 1.20683 10.8333 1.66683 10.8333L4.251 10.8333C4.196 10.5642 4.16683 10.2858 4.16683 10ZM7.50016 2.5C7.50016 2.21417 7.52933 1.93583 7.58433 1.66667L1.66683 1.66667C1.20683 1.66667 0.833495 2.03917 0.833495 2.5C0.833495 2.96083 1.20683 3.33333 1.66683 3.33333L7.58433 3.33333C7.52933 3.06417 7.50016 2.78583 7.50016 2.5ZM15.8335 2.5C15.8335 2.78583 15.8043 3.06417 15.7493 3.33333L18.3335 3.33333C18.7935 3.33333 19.1668 2.96083 19.1668 2.5C19.1668 2.03917 18.7935 1.66667 18.3335 1.66667L15.7493 1.66667C15.8043 1.93583 15.8335 2.21417 15.8335 2.5ZM7.50016 17.5C7.50016 17.2142 7.52933 16.9358 7.58433 16.6667L1.66683 16.6667C1.20683 16.6667 0.833496 17.0392 0.833496 17.5C0.833496 17.9608 1.20683 18.3333 1.66683 18.3333L7.58433 18.3333C7.52933 18.0642 7.50016 17.7858 7.50016 17.5ZM12.5002 10C12.5002 10.2858 12.471 10.5642 12.416 10.8333L18.3335 10.8333C18.7935 10.8333 19.1668 10.4608 19.1668 10C19.1668 9.53917 18.7935 9.16667 18.3335 9.16667L12.416 9.16667C12.471 9.43583 12.5002 9.71417 12.5002 10ZM15.8335 17.5C15.8335 17.7858 15.8043 18.0642 15.7493 18.3333L18.3335 18.3333C18.7935 18.3333 19.1668 17.9608 19.1668 17.5C19.1668 17.0392 18.7935 16.6667 18.3335 16.6667L15.7493 16.6667C15.8043 16.9358 15.8335 17.2142 15.8335 17.5Z" fill="#969696"/>
</svg>
