<svg width="18" height="18" viewBox="0 0 18 18" fill="none" xmlns="http://www.w3.org/2000/svg">
<path d="M12.573 13.5279C11.2419 14.6421 9.5274 15.3144 7.6581 15.3144C3.4308 15.3144 0 11.8836 0 7.6572C0 3.4308 3.4308 0 7.6581 0C11.8836 0 15.3153 3.4308 15.3153 7.6572C15.3153 9.5274 14.643 11.2428 13.5288 12.5721L17.8029 16.8471C17.9343 16.9785 18 17.1513 18 17.325C18 17.8533 17.5167 18 17.325 18C17.1522 18 16.9794 17.9343 16.8471 17.802L12.573 13.5279ZM7.6581 1.3509C4.1769 1.3509 1.3518 4.1769 1.3518 7.6572C1.3518 11.1375 4.1769 13.9635 7.6581 13.9635C11.1375 13.9635 13.9644 11.1375 13.9644 7.6572C13.9644 4.1769 11.1375 1.3509 7.6581 1.3509Z" fill="#FF7D00"/>
</svg>
