<svg width="7" height="4" viewBox="0 0 7 4" fill="none" xmlns="http://www.w3.org/2000/svg">
<path d="M3.49354 2.74103L6.09606 0.159231C6.14456 0.109415 6.20258 0.0696804 6.26672 0.042345C6.33087 0.0150098 6.39986 0.000621277 6.46967 1.95059e-05C6.53948 -0.000582504 6.60871 0.0126144 6.67333 0.0388398C6.73794 0.0650651 6.79664 0.103794 6.84601 0.152766C6.89537 0.201738 6.93441 0.259973 6.96085 0.324073C6.98728 0.388172 7.00059 0.456853 6.99998 0.526107C6.99937 0.595362 6.98487 0.663803 6.95731 0.727437C6.92976 0.791071 6.88971 0.848624 6.83949 0.896738L3.86525 3.84729C3.76666 3.94507 3.63295 4 3.49354 4C3.35413 4 3.22042 3.94507 3.12183 3.84729L0.147588 0.896738C0.0518157 0.798368 -0.00117818 0.666617 1.97235e-05 0.529862C0.00121762 0.393106 0.0565115 0.262289 0.153992 0.165585C0.251473 0.0688803 0.383341 0.0140266 0.521194 0.0128383C0.659047 0.0116501 0.791856 0.0642221 0.891016 0.159231L3.49354 2.74103Z" fill="#969696"/>
</svg>
