<svg width="7" height="4" viewBox="0 0 7 4" fill="none" xmlns="http://www.w3.org/2000/svg">
<path d="M3.49354 1.25897L6.09606 3.84077C6.14456 3.89058 6.20258 3.93032 6.26672 3.95765C6.33087 3.98499 6.39986 3.99938 6.46967 3.99998C6.53948 4.00058 6.60871 3.98739 6.67333 3.96116C6.73794 3.93493 6.79664 3.89621 6.84601 3.84723C6.89537 3.79826 6.93441 3.74003 6.96085 3.67593C6.98728 3.61183 7.00059 3.54315 6.99998 3.47389C6.99937 3.40464 6.98487 3.3362 6.95731 3.27256C6.92976 3.20893 6.88971 3.15138 6.83949 3.10326L3.86525 0.15271C3.76666 0.0549301 3.63295 1.58801e-07 3.49354 1.52707e-07C3.35413 1.46614e-07 3.22042 0.05493 3.12183 0.15271L0.147588 3.10326C0.0518157 3.20163 -0.00117818 3.33338 1.97235e-05 3.47014C0.00121762 3.60689 0.0565115 3.73771 0.153992 3.83442C0.251473 3.93112 0.383341 3.98597 0.521194 3.98716C0.659047 3.98835 0.791856 3.93578 0.891016 3.84077L3.49354 1.25897Z" fill="#303030"/>
</svg>
