<svg width="18" height="18" viewBox="0 0 18 18" fill="none" xmlns="http://www.w3.org/2000/svg">
<path d="M13.9998 5.66624C14.4418 5.66624 14.8657 5.49065 15.1783 5.17809C15.4909 4.86553 15.6665 4.44161 15.6665 3.99958C15.6665 3.55755 15.4909 3.13363 15.1783 2.82107C14.8657 2.50851 14.4418 2.33291 13.9998 2.33291C13.5578 2.33291 13.1339 2.50851 12.8213 2.82107C12.5087 3.13363 12.3331 3.55755 12.3331 3.99958C12.3331 4.44161 12.5087 4.86553 12.8213 5.17809C13.1339 5.49065 13.5578 5.66624 13.9998 5.66624ZM7.27313 8.36624C7.36037 8.81953 7.353 9.28595 7.25147 9.73625L11.4515 11.8504C11.9747 11.2304 12.7061 10.8225 13.5086 10.7032C14.3111 10.5839 15.1295 10.7613 15.8105 11.2023C16.4915 11.6432 16.9883 12.3174 17.2078 13.0984C17.4273 13.8794 17.3545 14.7137 17.0029 15.4449C16.6513 16.176 16.0451 16.7538 15.298 17.07C14.5509 17.3862 13.7141 17.4191 12.9444 17.1625C12.1748 16.9059 11.5252 16.3774 11.1173 15.6761C10.7095 14.9747 10.5714 14.1488 10.729 13.3529L6.4873 11.2179C6.03473 11.7255 5.43774 12.0825 4.77644 12.241C4.11514 12.3996 3.42118 12.352 2.78766 12.1048C2.15415 11.8576 1.61139 11.4226 1.23223 10.8581C0.85307 10.2936 0.655641 9.62657 0.666436 8.94662C0.677231 8.26667 0.895734 7.60629 1.29262 7.05409C1.68952 6.50189 2.24581 6.08429 2.88685 5.85733C3.52789 5.63036 4.22302 5.6049 4.87895 5.78435C5.53488 5.96379 6.12023 6.33957 6.55647 6.86125L10.7531 4.75958C10.5681 3.96968 10.6775 3.13941 11.0608 2.42439C11.4441 1.70938 12.0751 1.1587 12.8353 0.875582C13.5956 0.59246 14.4331 0.596328 15.1907 0.886462C15.9483 1.17659 16.5741 1.73308 16.9508 2.4516C17.3275 3.17013 17.4293 4.00137 17.2369 4.78953C17.0446 5.57769 16.5715 6.26865 15.9062 6.73292C15.2408 7.19719 14.4291 7.40288 13.6229 7.31144C12.8168 7.22001 12.0717 6.83773 11.5273 6.23625L7.27313 8.36624ZM3.9998 10.6662C4.44183 10.6662 4.86575 10.4907 5.17831 10.1781C5.49087 9.86553 5.66647 9.44161 5.66647 8.99958C5.66647 8.55755 5.49087 8.13363 5.17831 7.82107C4.86575 7.50851 4.44183 7.33291 3.9998 7.33291C3.55777 7.33291 3.13385 7.50851 2.82129 7.82107C2.50873 8.13363 2.33313 8.55755 2.33313 8.99958C2.33313 9.44161 2.50873 9.86553 2.82129 10.1781C3.13385 10.4907 3.55777 10.6662 3.9998 10.6662ZM13.9998 15.6662C14.4418 15.6662 14.8657 15.4906 15.1783 15.1781C15.4909 14.8655 15.6665 14.4416 15.6665 13.9996C15.6665 13.5576 15.4909 13.1336 15.1783 12.8211C14.8657 12.5085 14.4418 12.3329 13.9998 12.3329C13.5578 12.3329 13.1339 12.5085 12.8213 12.8211C12.5087 13.1336 12.3331 13.5576 12.3331 13.9996C12.3331 14.4416 12.5087 14.8655 12.8213 15.1781C13.1339 15.4906 13.5578 15.6662 13.9998 15.6662Z" fill="#DDDDDD"/>
</svg>
