<svg width="12" height="20" viewBox="0 0 12 20" fill="none" xmlns="http://www.w3.org/2000/svg">
<path d="M4.23887 9.99928L11.2514 17.0118C11.3867 17.1425 11.4946 17.2988 11.5688 17.4716C11.6431 17.6445 11.6822 17.8304 11.6838 18.0185C11.6854 18.2066 11.6496 18.3931 11.5784 18.5672C11.5071 18.7413 11.4019 18.8995 11.2689 19.0325C11.1359 19.1655 10.9777 19.2707 10.8036 19.3419C10.6295 19.4132 10.443 19.449 10.2549 19.4474C10.0668 19.4457 9.88088 19.4067 9.70804 19.3324C9.5352 19.2582 9.37888 19.1503 9.2482 19.0149L1.23412 11.0009C0.968533 10.7352 0.819336 10.3749 0.819336 9.99928C0.819336 9.62363 0.968533 9.26336 1.23412 8.9977L9.2482 0.983613C9.51539 0.725555 9.87324 0.582763 10.2447 0.585991C10.6161 0.589219 10.9714 0.738208 11.2341 1.00087C11.4968 1.26353 11.6458 1.61885 11.649 1.99029C11.6522 2.36174 11.5094 2.71959 11.2514 2.98678L4.23887 9.99928Z" fill="#969696"/>
</svg>
