<svg width="462" height="424" viewBox="0 0 462 424" fill="none" xmlns="http://www.w3.org/2000/svg">
<mask id="mask0_669_862" style="mask-type:alpha" maskUnits="userSpaceOnUse" x="0" y="0" width="462" height="424">
<rect width="462" height="424" fill="#D9D9D9"/>
</mask>
<g mask="url(#mask0_669_862)">
<path d="M206 47C206 44.7909 207.791 43 210 43H407C409.209 43 411 44.7909 411 47V371H206V47Z" fill="#FFD247"/>
<rect x="134" y="360.305" width="178.933" height="9.77775" rx="4" fill="#FFE38D"/>
<rect x="142.5" y="14.5" width="136" height="355" rx="3.5" fill="#FFE38D" stroke="#FFE9A7"/>
<rect x="209.289" y="263.508" width="50.8443" height="106.577" rx="4" fill="#FFDD73"/>
<rect x="179.953" y="1" width="74.3109" height="33.2443" rx="4" fill="#FFE38D"/>
<rect x="146.711" y="31.3125" width="132" height="11.7333" fill="#FFE9A7"/>
<rect x="146.711" y="49.8906" width="132" height="10.7555" fill="#FFE9A7"/>
<rect x="146.711" y="68.4688" width="132" height="10.7555" fill="#FFE9A7"/>
<rect x="146.711" y="87.0469" width="132" height="10.7555" fill="#FFE9A7"/>
<rect x="146.711" y="105.625" width="132" height="10.7555" fill="#FFE9A7"/>
<rect x="146.711" y="124" width="132" height="10.7555" fill="#FFE9A7"/>
<rect x="146.711" y="142.375" width="132" height="10.7555" fill="#FFE9A7"/>
<rect x="146.711" y="160.758" width="132" height="10.7555" fill="#FFE9A7"/>
<rect x="146.711" y="179.133" width="132" height="10.7555" fill="#FFE9A7"/>
<rect x="146.711" y="197.516" width="132" height="10.7555" fill="#FFE9A7"/>
<rect x="146.711" y="215.891" width="132" height="10.7555" fill="#FFE9A7"/>
<path d="M142 18C142 15.7909 143.791 14 146 14H173L173 369H142L142 18Z" fill="#FFE9A7"/>
<rect x="134" y="361" width="14.7107" height="8.09088" rx="4" fill="#FFE9A7"/>
<path d="M297.289 149.195C297.289 146.986 299.08 145.195 301.289 145.195H350C352.209 145.195 354 146.986 354 149.195V370.084H297.289V149.195Z" fill="#FFE38D"/>
<rect x="309.984" y="160.859" width="11.3537" height="11.3537" rx="2" fill="#FFDD73"/>
<rect x="329.445" y="160.859" width="11.3537" height="11.3537" rx="2" fill="#FFDD73"/>
<rect x="309.984" y="178.695" width="11.3537" height="11.3537" rx="2" fill="#FFDD73"/>
<rect x="329.445" y="178.695" width="11.3537" height="11.3537" rx="2" fill="#FFDD73"/>
<rect x="309.984" y="196.539" width="11.3537" height="11.3537" rx="2" fill="#FFDD73"/>
<rect x="329.445" y="196.539" width="11.3537" height="11.3537" rx="2" fill="#FFDD73"/>
<rect x="309.984" y="214.383" width="11.3537" height="11.3537" rx="2" fill="#FFDD73"/>
<rect x="329.445" y="214.383" width="11.3537" height="11.3537" rx="2" fill="#FFDD73"/>
<rect x="309.984" y="232.227" width="11.3537" height="11.3537" rx="2" fill="#FFDD73"/>
<rect x="329.445" y="232.227" width="11.3537" height="11.3537" rx="2" fill="#FFDD73"/>
<rect x="309.984" y="250.062" width="11.3537" height="11.3537" rx="2" fill="#FFDD73"/>
<rect x="329.445" y="250.062" width="11.3537" height="11.3537" rx="2" fill="#FFDD73"/>
<rect x="309.984" y="267.906" width="11.3537" height="11.3537" rx="2" fill="#FFDD73"/>
<rect x="329.445" y="267.906" width="11.3537" height="11.3537" rx="2" fill="#FFDD73"/>
<rect x="309.984" y="285.75" width="11.3537" height="11.3537" rx="2" fill="#FFDD73"/>
<rect x="329.445" y="285.75" width="11.3537" height="11.3537" rx="2" fill="#FFDD73"/>
<rect x="309.984" y="303.586" width="11.3537" height="11.3537" rx="2" fill="#FFDD73"/>
<rect x="329.445" y="303.586" width="11.3537" height="11.3537" rx="2" fill="#FFDD73"/>
<rect x="309.984" y="321.43" width="11.3537" height="11.3537" rx="2" fill="#FFDD73"/>
<rect x="329.445" y="321.43" width="11.3537" height="11.3537" rx="2" fill="#FFDD73"/>
<rect x="309.984" y="339.273" width="11.3537" height="11.3537" rx="2" fill="#FFDD73"/>
<rect x="329.445" y="339.273" width="11.3537" height="11.3537" rx="2" fill="#FFDD73"/>
<path fill-rule="evenodd" clip-rule="evenodd" d="M85.6706 174.891V175.033C85.6709 175.001 85.6711 174.97 85.6712 174.938C85.6712 174.923 85.6713 174.907 85.6713 174.891C85.6713 167.219 79.452 161 71.7801 161C65.8903 161 60.8566 164.666 58.8359 169.84C56.8153 164.666 51.7816 161 45.8918 161C38.2199 161 32.0006 167.219 32.0006 174.891L32.0006 174.891H85.6706ZM85.6702 175.017H32V184.488H85.6702V175.017Z" fill="url(#paint0_linear_669_862)"/>
<path fill-rule="evenodd" clip-rule="evenodd" d="M60.55 289.301C64.0104 285.345 66.1073 280.166 66.1073 274.497C66.1073 262.072 56.0351 252 43.6104 252C31.1856 252 21.1134 262.072 21.1134 274.497C21.1134 280.166 23.2104 285.345 26.6709 289.302C16.1245 295.232 9 306.529 9 319.491C9 338.606 24.4957 354.101 43.6107 354.101C62.7256 354.101 78.2213 338.606 78.2213 319.491C78.2213 306.529 71.0966 295.232 60.55 289.301Z" fill="#FFE38D"/>
<path d="M45.6172 302.175C45.6172 300.794 44.4979 299.675 43.1172 299.675C41.7365 299.675 40.6172 300.794 40.6172 302.175L45.6172 302.175ZM45.6172 370.407L45.6172 302.175L40.6172 302.175L40.6172 370.407L45.6172 370.407Z" fill="#FFE9A7"/>
<path d="M60.631 321C61.6074 320.024 61.6074 318.441 60.631 317.465C59.6547 316.488 58.0718 316.488 57.0955 317.465L60.631 321ZM44.8851 336.746L60.631 321L57.0955 317.465L41.3496 333.211L44.8851 336.746Z" fill="#FFE9A7"/>
<path fill-rule="evenodd" clip-rule="evenodd" d="M104.12 328.558C105.888 326.535 106.96 323.888 106.96 320.991C106.96 314.64 101.812 309.492 95.4617 309.492C89.1113 309.492 83.9633 314.64 83.9633 320.991C83.9633 323.888 85.0351 326.535 86.8038 328.558C81.4133 331.589 77.7719 337.363 77.7719 343.987C77.7719 353.757 85.6919 361.677 95.4617 361.677C105.232 361.677 113.152 353.757 113.152 343.987C113.152 337.363 109.51 331.589 104.12 328.558Z" fill="#FFE38D"/>
<path d="M97.9623 340.007C97.9623 338.626 96.843 337.507 95.4623 337.507C94.0816 337.507 92.9623 338.626 92.9623 340.007H97.9623ZM97.9623 370.522V340.007H92.9623V370.522H97.9623Z" fill="#FFE9A7"/>
<path d="M-3 374C-3 371.791 -1.20914 370 1 370H1197V415C1197 417.209 1195.21 419 1193 419H0.999996C-1.20914 419 -3 417.209 -3 415V374Z" fill="url(#paint1_linear_669_862)"/>
<rect x="354" y="340" width="37" height="30" fill="#FFE38D"/>
<path d="M169.163 346.208H175.416V364.969H169.163V346.208Z" fill="#FF7D00"/>
<path d="M158.338 365.415C158.338 362.776 160.642 360.73 163.262 361.04L171.933 362.067C173.958 362.307 175.454 364.069 175.361 366.106C175.267 368.184 173.555 369.821 171.475 369.821H162.744C160.311 369.821 158.338 367.848 158.338 365.415Z" fill="#FF7D00"/>
<path d="M182.976 367.574C182.132 365.13 183.428 362.464 185.872 361.62L192.953 359.174C195.397 358.329 198.062 359.626 198.907 362.07C199.751 364.514 198.454 367.18 196.01 368.024L188.93 370.47C186.486 371.314 183.82 370.018 182.976 367.574Z" fill="#FF7D00"/>
<path d="M186.999 345.998H182.999V364.998H186.999V345.998Z" fill="#FF7D00"/>
<path d="M231 301.461C231 329.904 207.943 352.961 179.5 352.961C151.057 352.961 128 329.904 128 301.461C128 273.018 151.057 249.961 179.5 249.961C207.943 249.961 231 273.018 231 301.461Z" fill="url(#paint2_linear_669_862)"/>
<path d="M231 301.461C231 329.904 207.943 352.961 179.5 352.961C151.057 352.961 128 329.904 128 301.461C128 273.018 151.057 249.961 179.5 249.961C207.943 249.961 231 273.018 231 301.461Z" fill="url(#paint3_radial_669_862)"/>
<path d="M181.691 284.826C181.691 286.042 180.508 287.028 179.049 287.028C177.59 287.028 176.408 286.042 176.408 284.826C176.408 283.611 177.59 282.625 179.049 282.625C180.508 282.625 181.691 283.611 181.691 284.826Z" fill="#FBD970"/>
<path d="M174.647 280.603C174.647 283.521 173.267 285.887 171.565 285.887C169.863 285.887 168.484 283.521 168.484 280.603C168.484 277.686 169.863 275.32 171.565 275.32C173.267 275.32 174.647 277.686 174.647 280.603Z" fill="#303030"/>
<path d="M189.615 280.603C189.615 283.521 188.235 285.887 186.533 285.887C184.831 285.887 183.452 283.521 183.452 280.603C183.452 277.686 184.831 275.32 186.533 275.32C188.235 275.32 189.615 277.686 189.615 280.603Z" fill="#303030"/>
<path d="M189.615 280.603C189.615 283.521 188.235 285.887 186.533 285.887C184.831 285.887 183.452 283.521 183.452 280.603C183.452 277.686 184.831 275.32 186.533 275.32C188.235 275.32 189.615 277.686 189.615 280.603Z" fill="#303030"/>
<path d="M189.615 280.603C189.615 283.521 188.235 285.887 186.533 285.887C184.831 285.887 183.452 283.521 183.452 280.603C183.452 277.686 184.831 275.32 186.533 275.32C188.235 275.32 189.615 277.686 189.615 280.603Z" fill="#303030"/>
<path fill-rule="evenodd" clip-rule="evenodd" d="M184.264 288.555C184.747 288.421 185.247 288.703 185.381 289.186C185.445 289.415 185.618 289.788 185.898 290.076C186.158 290.344 186.479 290.512 186.913 290.482C187.412 290.448 187.846 290.825 187.88 291.325C187.915 291.825 187.538 292.258 187.038 292.292C186.386 292.338 185.83 292.186 185.371 291.934C182.646 294.129 179.931 294.666 177.555 294.325C175.088 293.971 173.073 292.686 171.837 291.527C171.472 291.184 171.453 290.61 171.796 290.245C172.139 289.879 172.713 289.86 173.078 290.203C174.117 291.177 175.804 292.241 177.813 292.529C179.629 292.789 181.783 292.428 184.066 290.652C183.852 290.301 183.711 289.952 183.633 289.672C183.499 289.189 183.781 288.689 184.264 288.555Z" fill="#303030"/>
<circle cx="325.41" cy="111.055" r="14.0117" transform="rotate(-0.127852 325.41 111.055)" fill="#242945"/>
<path d="M325.453 131.174L314.226 119.613L336.628 119.563L325.453 131.174Z" fill="#242945"/>
<circle cx="325.634" cy="111.102" r="5.08631" transform="rotate(29.5647 325.634 111.102)" fill="#FFE69A"/>
<path d="M388.783 243.192H622.22V370.13H388.783V243.192Z" fill="#FFE38D"/>
<path d="M457.638 249.346C457.638 247.137 459.429 245.346 461.638 245.346H507.273C509.483 245.346 511.273 247.137 511.273 249.346V370.132H457.638V249.346Z" fill="#FFDD73"/>
<path d="M388.781 167.588C388.781 165.379 390.572 163.588 392.781 163.588H618.218C620.427 163.588 622.218 165.379 622.218 167.588V245.345H388.781V167.588Z" fill="#FFE9A7"/>
<path fill-rule="evenodd" clip-rule="evenodd" d="M588.868 163.588H575.957V245.345H588.868V163.588ZM601.777 245.345H622.218V167.588C622.218 165.379 620.427 163.588 618.218 163.588H601.777V245.345ZM550.146 163.588H563.048V245.345H446.874V163.588H459.78V245.345H472.689V163.588H485.601V245.344H498.51V163.588H511.417V245.344H524.325V163.588H537.237V245.344H550.146V163.588ZM433.965 163.588H421.053V245.345H433.965V163.588ZM392.781 163.588H408.144V245.345H388.781V167.588C388.781 165.379 390.572 163.588 392.781 163.588Z" fill="#FFE38D"/>
</g>
<defs>
<linearGradient id="paint0_linear_669_862" x1="58.8356" y1="161" x2="59.1008" y2="189.969" gradientUnits="userSpaceOnUse">
<stop stop-color="#FFE9A7"/>
<stop offset="1" stop-color="#FFE9A7" stop-opacity="0"/>
</linearGradient>
<linearGradient id="paint1_linear_669_862" x1="597" y1="370" x2="597" y2="419" gradientUnits="userSpaceOnUse">
<stop stop-color="#FFE9A7"/>
<stop offset="1" stop-color="#FFE9A7" stop-opacity="0"/>
</linearGradient>
<linearGradient id="paint2_linear_669_862" x1="179.5" y1="249.961" x2="179.5" y2="352.961" gradientUnits="userSpaceOnUse">
<stop stop-color="#FF8F24"/>
<stop offset="1" stop-color="#FF7324"/>
</linearGradient>
<radialGradient id="paint3_radial_669_862" cx="0" cy="0" r="1" gradientUnits="userSpaceOnUse" gradientTransform="translate(179.93 272.676) rotate(90) scale(84.9706 95.8532)">
<stop stop-color="#FFAA47"/>
<stop offset="1" stop-color="#FF7324" stop-opacity="0"/>
</radialGradient>
</defs>
</svg>
