<svg width="13" height="14" viewBox="0 0 13 14" fill="none" xmlns="http://www.w3.org/2000/svg">
<path d="M3.25 1.47368C2.81902 1.47368 2.4057 1.62895 2.10095 1.90532C1.7962 2.18169 1.625 2.55652 1.625 2.94737V6.65958L11.375 6.64263V2.94737C11.375 2.55652 11.2038 2.18169 10.899 1.90532C10.5943 1.62895 10.181 1.47368 9.75 1.47368H3.25ZM9.47944 12.5263L8.9375 11.7895H4.0625L3.52056 12.5263H3.25C2.38805 12.5263 1.5614 12.2158 0.951903 11.6631C0.34241 11.1103 0 10.3606 0 9.57895V2.94737C0 2.16568 0.34241 1.416 0.951903 0.863264C1.5614 0.310525 2.38805 0 3.25 0L9.75 0C10.612 0 11.4386 0.310525 12.0481 0.863264C12.6576 1.416 13 2.16568 13 2.94737V9.57895C13 10.3606 12.6576 11.1103 12.0481 11.6631C11.4386 12.2158 10.612 12.5263 9.75 12.5263H9.47944ZM3.25 10.3158C3.46549 10.3158 3.67215 10.2382 3.82452 10.1C3.9769 9.96179 4.0625 9.77437 4.0625 9.57895C4.0625 9.38352 3.9769 9.19611 3.82452 9.05792C3.67215 8.91974 3.46549 8.8421 3.25 8.8421C3.03451 8.8421 2.82785 8.91974 2.67548 9.05792C2.5231 9.19611 2.4375 9.38352 2.4375 9.57895C2.4375 9.77437 2.5231 9.96179 2.67548 10.1C2.82785 10.2382 3.03451 10.3158 3.25 10.3158ZM9.75 10.3158C9.96549 10.3158 10.1722 10.2382 10.3245 10.1C10.4769 9.96179 10.5625 9.77437 10.5625 9.57895C10.5625 9.38352 10.4769 9.19611 10.3245 9.05792C10.1722 8.91974 9.96549 8.8421 9.75 8.8421C9.53451 8.8421 9.32785 8.91974 9.17548 9.05792C9.0231 9.19611 8.9375 9.38352 8.9375 9.57895C8.9375 9.77437 9.0231 9.96179 9.17548 10.1C9.32785 10.2382 9.53451 10.3158 9.75 10.3158ZM3.50513 12.5477L9.49406 12.5469L9.72075 12.8542C9.80247 12.9653 9.84937 13.0944 9.85644 13.2278C9.86351 13.3611 9.83048 13.4938 9.76089 13.6114C9.6913 13.7291 9.58776 13.8274 9.46134 13.8958C9.33491 13.9643 9.19036 14.0003 9.04313 14H3.95687C3.80971 14.0002 3.66526 13.9641 3.53895 13.8956C3.41265 13.8271 3.30922 13.7287 3.23973 13.6111C3.17024 13.4935 3.13728 13.3609 3.14439 13.2276C3.15149 13.0943 3.19839 12.9652 3.28006 12.8542L3.50513 12.5477Z" fill="#FF7D00"/>
</svg>
