<svg width="14" height="14" viewBox="0 0 14 14" fill="none" xmlns="http://www.w3.org/2000/svg">
<g clip-path="url(#clip0_331_4082)">
<path d="M13.2843 4.50422C13.0108 4.18899 12.6727 3.93621 12.293 3.76301C11.9133 3.5898 11.5008 3.50021 11.0834 3.5003H8.7565L8.9525 2.30972C9.02185 1.89045 8.93818 1.46023 8.71675 1.09752C8.49532 0.734802 8.15089 0.463767 7.74628 0.333847C7.34167 0.203926 6.90383 0.223777 6.51263 0.389779C6.12144 0.55578 5.80294 0.856871 5.61525 1.23813L4.66675 3.16022V12.2503H10.6751C11.3771 12.2474 12.0548 11.9926 12.5848 11.5323C13.1148 11.072 13.462 10.4367 13.5632 9.74197L13.9744 6.8253C14.0326 6.41156 14.001 5.99015 13.882 5.58966C13.7629 5.18918 13.5591 4.81899 13.2843 4.50422Z" fill="#FF7D00"/>
<path d="M0 6.41667V9.33333C0.00092625 10.1066 0.308514 10.8479 0.855295 11.3947C1.40208 11.9415 2.1434 12.2491 2.91667 12.25H3.5V3.5H2.91667C2.1434 3.50093 1.40208 3.80851 0.855295 4.35529C0.308514 4.90208 0.00092625 5.6434 0 6.41667H0Z" fill="#FF7D00"/>
</g>
<defs>
<clipPath id="clip0_331_4082">
<rect width="14" height="14" fill="white"/>
</clipPath>
</defs>
</svg>
