<svg width="16" height="9" viewBox="0 0 16 9" fill="none" xmlns="http://www.w3.org/2000/svg">
<path d="M7.99999 2.65302L2.63749 8.01552C2.53755 8.11899 2.41801 8.20152 2.28584 8.2583C2.15367 8.31507 2.01152 8.34496 1.86767 8.34621C1.72383 8.34746 1.58118 8.32005 1.44804 8.26558C1.3149 8.21111 1.19394 8.13067 1.09223 8.02895C0.99051 7.92723 0.910069 7.80628 0.855598 7.67314C0.801127 7.54 0.773718 7.39735 0.774967 7.2535C0.776217 7.10966 0.806102 6.9675 0.862879 6.83533C0.919656 6.70316 1.00219 6.58362 1.10566 6.48369L7.23407 0.355271C7.43723 0.152177 7.71273 0.0380856 7.99999 0.0380856C8.28725 0.0380856 8.56275 0.152177 8.7659 0.355271L14.8943 6.48369C15.0917 6.68801 15.2009 6.96166 15.1984 7.24571C15.1959 7.52975 15.082 7.80147 14.8811 8.00233C14.6803 8.20318 14.4086 8.31712 14.1245 8.31958C13.8405 8.32205 13.5668 8.21286 13.3625 8.01552L7.99999 2.65302Z" fill="#969696"/>
</svg>
