<svg width="10" height="13" viewBox="0 0 10 13" fill="none" xmlns="http://www.w3.org/2000/svg">
<path d="M2.70698 8.29573L2.35459 9.1305H0.761926C0.3412 9.1305 0 9.47703 0 9.90433C0 10.3316 0.3412 10.6782 0.761926 10.6782H2.60602C3.06437 10.6782 3.477 10.4015 3.65629 9.9747L3.86558 9.47849L3.61153 9.32614C3.19914 9.07875 2.89579 8.71263 2.70698 8.29573ZM9.14311 6.03518H8.09475L7.47426 4.74748C7.17663 4.12962 6.63018 3.6779 6.00326 3.51563L4.31083 3.00442C3.63701 2.83998 2.93532 2.99112 2.38602 3.41891L1.44147 4.15429C1.10741 4.41425 1.04408 4.89982 1.30051 5.2391C1.55695 5.57838 2.03482 5.64198 2.36864 5.38226L3.31366 4.64688C3.49629 4.50445 3.72891 4.45342 3.91535 4.4984L4.26536 4.60408L3.37343 6.71736C3.07294 7.43025 3.34224 8.26526 3.99963 8.65943L6.02302 9.87266L5.36896 11.9942C5.24324 12.4019 5.46682 12.8359 5.86826 12.9636C5.94421 12.9878 6.02088 12.9994 6.09636 12.9994C6.42042 12.9994 6.7209 12.7873 6.82305 12.4565L7.5764 10.0127C7.71712 9.51041 7.50759 8.9709 7.06115 8.6974L5.60301 7.82345L6.34851 5.93047L6.83114 6.93234C7.02162 7.32748 7.42449 7.5826 7.8576 7.5826H9.14311C9.56384 7.5826 9.90504 7.23607 9.90504 6.80877C9.90504 6.38147 9.56384 6.03518 9.14311 6.03518Z" fill="#969696"/>
<path d="M7.84795 1.47028C7.84795 2.2823 7.19983 2.94056 6.4003 2.94056C5.60077 2.94056 4.95264 2.2823 4.95264 1.47028C4.95264 0.658256 5.60077 0 6.4003 0C7.19983 0 7.84795 0.658256 7.84795 1.47028Z" fill="#969696"/>
</svg>
