<svg width="7" height="9" viewBox="0 0 7 9" fill="none" xmlns="http://www.w3.org/2000/svg">
<path d="M1.9759 5.73984L1.73216 6.31721H0.630595C0.339599 6.31721 0.103607 6.55689 0.103607 6.85243C0.103607 7.14797 0.339599 7.38765 0.630595 7.38765H1.90607C2.22309 7.38765 2.50848 7.19631 2.63249 6.9011L2.77725 6.55789L2.60153 6.45252C2.3163 6.28142 2.10649 6.02819 1.9759 5.73984ZM6.42746 4.17632H5.70236L5.27319 3.28568C5.06734 2.85834 4.68939 2.5459 4.25578 2.43367L3.0852 2.08009C2.61915 1.96636 2.13383 2.07089 1.7539 2.36677L1.1006 2.8754C0.869551 3.0552 0.825745 3.39105 1.00311 3.62571C1.18047 3.86037 1.51099 3.90436 1.74188 3.72473L2.39551 3.2161C2.52182 3.11759 2.68272 3.0823 2.81167 3.11341L3.05375 3.1865L2.43685 4.64815C2.22901 5.14123 2.41527 5.71877 2.86996 5.99139L4.26944 6.83052L3.81706 8.29787C3.73011 8.57986 3.88474 8.88009 4.1624 8.9684C4.21493 8.98512 4.26796 8.99315 4.32017 8.99315C4.5443 8.99315 4.75213 8.84647 4.82278 8.61766L5.34384 6.92736C5.44117 6.57997 5.29625 6.20682 4.98747 6.01765L3.97894 5.41319L4.49457 4.1039L4.82838 4.79684C4.96013 5.07014 5.23877 5.2466 5.53833 5.2466H6.42746C6.71846 5.2466 6.95445 5.00692 6.95445 4.71138C6.95445 4.41583 6.71846 4.17632 6.42746 4.17632Z" fill="#969696"/>
<path d="M5.53173 1.01692C5.53173 1.57856 5.08345 2.03384 4.53045 2.03384C3.97745 2.03384 3.52917 1.57856 3.52917 1.01692C3.52917 0.455284 3.97745 0 4.53045 0C5.08345 0 5.53173 0.455284 5.53173 1.01692Z" fill="#969696"/>
</svg>
