<svg width="25" height="25" viewBox="0 0 25 25" fill="none" xmlns="http://www.w3.org/2000/svg">
<circle cx="12.5" cy="12.5" r="12.5" fill="white"/>
<path d="M13.9805 12.5005L17.6805 8.79952C17.7804 8.70297 17.8602 8.58747 17.915 8.45978C17.9699 8.33208 17.9988 8.19473 18 8.05576C18.0012 7.91678 17.9747 7.77896 17.9221 7.65033C17.8694 7.5217 17.7917 7.40484 17.6934 7.30656C17.5952 7.20829 17.4783 7.13057 17.3497 7.07794C17.221 7.02531 17.0832 6.99883 16.9442 7.00004C16.8053 7.00125 16.6679 7.03012 16.5402 7.08498C16.4125 7.13983 16.297 7.21957 16.2005 7.31953L12.4995 11.0195L8.79952 7.31953C8.70297 7.21957 8.58747 7.13983 8.45978 7.08498C8.33208 7.03012 8.19473 7.00125 8.05576 7.00004C7.91678 6.99883 7.77896 7.02531 7.65033 7.07794C7.5217 7.13057 7.40484 7.20829 7.30656 7.30656C7.20829 7.40484 7.13057 7.5217 7.07794 7.65033C7.02531 7.77896 6.99883 7.91678 7.00004 8.05576C7.00125 8.19473 7.03012 8.33208 7.08498 8.45978C7.13983 8.58747 7.21957 8.70297 7.31953 8.79952L11.0195 12.4995L7.31953 16.2005C7.21957 16.297 7.13983 16.4125 7.08498 16.5402C7.03012 16.6679 7.00125 16.8053 7.00004 16.9442C6.99883 17.0832 7.02531 17.221 7.07794 17.3497C7.13057 17.4783 7.20829 17.5952 7.30656 17.6934C7.40484 17.7917 7.5217 17.8694 7.65033 17.9221C7.77896 17.9747 7.91678 18.0012 8.05576 18C8.19473 17.9988 8.33208 17.9699 8.45978 17.915C8.58747 17.8602 8.70297 17.7804 8.79952 17.6805L12.4995 13.9805L16.2005 17.6805C16.297 17.7804 16.4125 17.8602 16.5402 17.915C16.6679 17.9699 16.8053 17.9988 16.9442 18C17.0832 18.0012 17.221 17.9747 17.3497 17.9221C17.4783 17.8694 17.5952 17.7917 17.6934 17.6934C17.7917 17.5952 17.8694 17.4783 17.9221 17.3497C17.9747 17.221 18.0012 17.0832 18 16.9442C17.9988 16.8053 17.9699 16.6679 17.915 16.5402C17.8602 16.4125 17.7804 16.297 17.6805 16.2005L13.9805 12.5005Z" fill="#969696"/>
</svg>
