<svg width="11" height="11" viewBox="0 0 11 11" fill="none" xmlns="http://www.w3.org/2000/svg">
<path d="M6.98051 5.50052L10.6805 1.79952C10.7804 1.70297 10.8602 1.58747 10.915 1.45978C10.9699 1.33208 10.9988 1.19473 11 1.05576C11.0012 0.916784 10.9747 0.77896 10.9221 0.650329C10.8694 0.521697 10.7917 0.404835 10.6934 0.306561C10.5952 0.208287 10.4783 0.130569 10.3497 0.0779415C10.221 0.0253143 10.0832 -0.00116814 9.94424 3.95186e-05C9.80527 0.00124718 9.66792 0.0301208 9.54023 0.0849754C9.41253 0.13983 9.29703 0.219567 9.20048 0.319534L5.49948 4.01949L1.79952 0.319534C1.70297 0.219567 1.58747 0.13983 1.45978 0.0849754C1.33208 0.0301208 1.19473 0.00124718 1.05576 3.95186e-05C0.916784 -0.00116814 0.77896 0.0253143 0.650329 0.0779415C0.521697 0.130569 0.404835 0.208287 0.306561 0.306561C0.208287 0.404835 0.130569 0.521697 0.0779415 0.650329C0.0253143 0.77896 -0.00116814 0.916784 3.95186e-05 1.05576C0.00124718 1.19473 0.0301208 1.33208 0.0849754 1.45978C0.13983 1.58747 0.219567 1.70297 0.319534 1.79952L4.01949 5.49948L0.319534 9.20048C0.219567 9.29703 0.13983 9.41253 0.0849754 9.54023C0.0301208 9.66792 0.00124718 9.80527 3.95186e-05 9.94424C-0.00116814 10.0832 0.0253143 10.221 0.0779415 10.3497C0.130569 10.4783 0.208287 10.5952 0.306561 10.6934C0.404835 10.7917 0.521697 10.8694 0.650329 10.9221C0.77896 10.9747 0.916784 11.0012 1.05576 11C1.19473 10.9988 1.33208 10.9699 1.45978 10.915C1.58747 10.8602 1.70297 10.7804 1.79952 10.6805L5.49948 6.98051L9.20048 10.6805C9.29703 10.7804 9.41253 10.8602 9.54023 10.915C9.66792 10.9699 9.80527 10.9988 9.94424 11C10.0832 11.0012 10.221 10.9747 10.3497 10.9221C10.4783 10.8694 10.5952 10.7917 10.6934 10.6934C10.7917 10.5952 10.8694 10.4783 10.9221 10.3497C10.9747 10.221 11.0012 10.0832 11 9.94424C10.9988 9.80527 10.9699 9.66792 10.915 9.54023C10.8602 9.41253 10.7804 9.29703 10.6805 9.20048L6.98051 5.50052Z" fill="#969696"/>
</svg>
