<svg width="27" height="26" viewBox="0 0 27 26" fill="none" xmlns="http://www.w3.org/2000/svg">
<path d="M25.0984 11.9167H23.9598C23.7068 9.43168 22.6041 7.11011 20.8379 5.34388C19.0716 3.57765 16.7501 2.47494 14.2651 2.22192V1.08333C14.2651 0.796016 14.151 0.520465 13.9478 0.317301C13.7446 0.114137 13.4691 0 13.1818 0C12.8944 0 12.6189 0.114137 12.4157 0.317301C12.2126 0.520465 12.0984 0.796016 12.0984 1.08333V2.22192C9.61345 2.47494 7.29188 3.57765 5.52564 5.34388C3.75941 7.11011 2.6567 9.43168 2.40368 11.9167H1.2651C0.977778 11.9167 0.702228 12.0308 0.499064 12.234C0.295899 12.4371 0.181763 12.7127 0.181763 13C0.181763 13.2873 0.295899 13.5629 0.499064 13.766C0.702228 13.9692 0.977778 14.0833 1.2651 14.0833H2.40368C2.6567 16.5683 3.75941 18.8899 5.52564 20.6561C7.29188 22.4224 9.61345 23.5251 12.0984 23.7781V24.9167C12.0984 25.204 12.2126 25.4795 12.4157 25.6827C12.6189 25.8859 12.8944 26 13.1818 26C13.4691 26 13.7446 25.8859 13.9478 25.6827C14.151 25.4795 14.2651 25.204 14.2651 24.9167V23.7781C16.7501 23.5251 19.0716 22.4224 20.8379 20.6561C22.6041 18.8899 23.7068 16.5683 23.9598 14.0833H25.0984C25.3857 14.0833 25.6613 13.9692 25.8645 13.766C26.0676 13.5629 26.1818 13.2873 26.1818 13C26.1818 12.7127 26.0676 12.4371 25.8645 12.234C25.6613 12.0308 25.3857 11.9167 25.0984 11.9167ZM14.2651 21.5919V20.5833C14.2651 20.296 14.151 20.0205 13.9478 19.8173C13.7446 19.6141 13.4691 19.5 13.1818 19.5C12.8944 19.5 12.6189 19.6141 12.4157 19.8173C12.2126 20.0205 12.0984 20.296 12.0984 20.5833V21.5919C10.1919 21.3489 8.42014 20.4796 7.06114 19.1206C5.70214 17.7616 4.83289 15.9898 4.58985 14.0833H5.59843C5.88575 14.0833 6.1613 13.9692 6.36446 13.766C6.56763 13.5629 6.68176 13.2873 6.68176 13C6.68176 12.7127 6.56763 12.4371 6.36446 12.234C6.1613 12.0308 5.88575 11.9167 5.59843 11.9167H4.58985C4.83289 10.0102 5.70214 8.23838 7.06114 6.87938C8.42014 5.52038 10.1919 4.65113 12.0984 4.40808V5.41667C12.0984 5.70398 12.2126 5.97953 12.4157 6.1827C12.6189 6.38586 12.8944 6.5 13.1818 6.5C13.4691 6.5 13.7446 6.38586 13.9478 6.1827C14.151 5.97953 14.2651 5.70398 14.2651 5.41667V4.40808C16.1716 4.65113 17.9434 5.52038 19.3024 6.87938C20.6614 8.23838 21.5306 10.0102 21.7737 11.9167H20.7651C20.4778 11.9167 20.2022 12.0308 19.9991 12.234C19.7959 12.4371 19.6818 12.7127 19.6818 13C19.6818 13.2873 19.7959 13.5629 19.9991 13.766C20.2022 13.9692 20.4778 14.0833 20.7651 14.0833H21.7737C21.5306 15.9898 20.6614 17.7616 19.3024 19.1206C17.9434 20.4796 16.1716 21.3489 14.2651 21.5919Z" fill="white"/>
<path d="M13.1817 9.75C12.5389 9.75 11.9106 9.94061 11.3761 10.2977C10.8416 10.6548 10.4251 11.1624 10.1791 11.7563C9.93311 12.3501 9.86875 13.0036 9.99415 13.634C10.1196 14.2645 10.4291 14.8436 10.8836 15.2981C11.3381 15.7526 11.9172 16.0622 12.5477 16.1876C13.1781 16.313 13.8316 16.2486 14.4254 16.0026C15.0193 15.7566 15.5269 15.3401 15.884 14.8056C16.2411 14.2711 16.4317 13.6428 16.4317 13C16.4317 12.138 16.0893 11.3114 15.4798 10.7019C14.8703 10.0924 14.0437 9.75 13.1817 9.75ZM13.1817 14.0833C12.9674 14.0833 12.758 14.0198 12.5798 13.9008C12.4017 13.7817 12.2628 13.6125 12.1808 13.4146C12.0988 13.2166 12.0774 12.9988 12.1192 12.7887C12.161 12.5785 12.2642 12.3855 12.4157 12.234C12.5672 12.0825 12.7602 11.9793 12.9704 11.9375C13.1805 11.8957 13.3983 11.9171 13.5963 11.9991C13.7942 12.0811 13.9634 12.22 14.0825 12.3981C14.2015 12.5763 14.265 12.7857 14.265 13C14.265 13.2873 14.1509 13.5629 13.9477 13.766C13.7446 13.9692 13.469 14.0833 13.1817 14.0833Z" fill="white"/>
</svg>
