<svg width="22" height="20" viewBox="0 0 22 20" fill="none" xmlns="http://www.w3.org/2000/svg">
<path d="M10.2306 0.927053C10.5299 0.00574231 11.8333 0.00573993 12.1327 0.927051L13.8758 6.29179C14.0097 6.70382 14.3936 6.98278 14.8269 6.98278H20.4677C21.4364 6.98278 21.8392 8.22239 21.0555 8.7918L16.492 12.1074C16.1415 12.362 15.9948 12.8134 16.1287 13.2254L17.8718 18.5902C18.1711 19.5115 17.1167 20.2776 16.333 19.7082L11.7694 16.3926C11.4189 16.138 10.9443 16.138 10.5939 16.3926L6.03033 19.7082C5.24662 20.2776 4.19214 19.5115 4.49149 18.5902L6.2346 13.2254C6.36847 12.8134 6.22182 12.362 5.87133 12.1074L1.30781 8.7918C0.524092 8.22239 0.926866 6.98278 1.89559 6.98278H7.53642C7.96964 6.98278 8.3536 6.70382 8.48747 6.2918L10.2306 0.927053Z" fill="#FBD970"/>
</svg>
